<svg xmlns="http://www.w3.org/2000/svg" xmlns:xlink="http://www.w3.org/1999/xlink" width="1.438" height="12.123" viewBox="0 0 1.438 12.123"><defs><clipPath id="a"><path d="M0,11.41a.719.719,0,1,1,.719.713A.717.717,0,0,1,0,11.41ZM.239,9.266V.48A.48.48,0,0,1,1.2.48V9.266a.48.48,0,1,1-.959,0Z" fill="#d3d3d3"/></clipPath></defs><path d="M0,11.41a.719.719,0,1,1,.719.713A.717.717,0,0,1,0,11.41ZM.239,9.266V.48A.48.48,0,0,1,1.2.48V9.266a.48.48,0,1,1-.959,0Z" fill="#d3d3d3"/><g clip-path="url(#a)"><g transform="translate(-13.901 -8.557)"><rect width="29.24" height="29" fill="none"/><rect width="29.24" height="29" fill="#f7a71e"/></g></g></svg>