<svg xmlns="http://www.w3.org/2000/svg" width="12" height="10.688" viewBox="0 0 12 10.688"><path d="M4.875.188,4.593,0c-.031,0-.406.533-1.125,1.594L2.437,3.188H0v.75H12v-.75H9.562L8.531,1.594Q7.5.048,7.453.024c-.032-.016-.141.04-.328.164S6.85.4,6.867.446s.32.508.914,1.382l.89,1.36H3.328l.89-1.36Q5.107.517,5.132.446C5.148.4,5.062.313,4.875.188Zm-3.047,4.5c0-.03-.032-.047-.094-.047l-.328.047c-.188.031-.3.047-.328.047l.843,5.953h8.157l.844-5.953-.75-.094-.751,5.3H2.578Z" fill="#49270a" fill-rule="evenodd"/></svg>