<?xml version="1.0" encoding="utf-8"?>
<svg width="121px" height="122px" viewBox="0 0 121 122" version="1.1" xmlns:xlink="http://www.w3.org/1999/xlink" xmlns="http://www.w3.org/2000/svg">
  <desc>Created with Lunacy</desc>
  <defs>
    <path d="M60.5 122C27.0868 122 0 94.6894 0 61C0 27.3106 27.0868 0 60.5 0C93.9132 0 121 27.3106 121 61C121 94.6894 93.9132 122 60.5 122ZM60.4999 117.933C91.6855 117.933 116.967 92.4434 116.967 61C116.967 29.5566 91.6855 4.06667 60.4999 4.06667C29.3142 4.06667 4.0332 29.5566 4.0332 61C4.0332 92.4434 29.3142 117.933 60.4999 117.933ZM34.1293 34.1307L34.1307 34.1292C34.9114 33.3486 36.1771 33.3486 36.9577 34.1292L60.9996 58.1711L85.0412 34.1294C85.8219 33.3488 87.0876 33.3488 87.8682 34.1294L87.8696 34.1308C88.6503 34.9115 88.6503 36.1772 87.8696 36.9578L63.828 60.9995L87.8708 85.0423C88.6515 85.823 88.6515 87.0887 87.8708 87.8694L87.8694 87.8708C87.0888 88.6514 85.8231 88.6514 85.0424 87.8708L60.9996 63.8279L36.9565 87.8709C36.1759 88.6516 34.9102 88.6516 34.1295 87.8709L34.1281 87.8695C33.3475 87.0889 33.3475 85.8232 34.1281 85.0425L58.1711 60.9995L34.1293 36.9577C33.3487 36.177 33.3487 34.9113 34.1293 34.1307Z" id="path_1" />
    <clipPath id="mask_1">
      <use xlink:href="#path_1" />
    </clipPath>
  </defs>
  <g id="Color/White">
    <path d="M60.5 122C27.0868 122 0 94.6894 0 61C0 27.3106 27.0868 0 60.5 0C93.9132 0 121 27.3106 121 61C121 94.6894 93.9132 122 60.5 122ZM60.4999 117.933C91.6855 117.933 116.967 92.4434 116.967 61C116.967 29.5566 91.6855 4.06667 60.4999 4.06667C29.3142 4.06667 4.0332 29.5566 4.0332 61C4.0332 92.4434 29.3142 117.933 60.4999 117.933ZM34.1293 34.1307L34.1307 34.1292C34.9114 33.3486 36.1771 33.3486 36.9577 34.1292L60.9996 58.1711L85.0412 34.1294C85.8219 33.3488 87.0876 33.3488 87.8682 34.1294L87.8696 34.1308C88.6503 34.9115 88.6503 36.1772 87.8696 36.9578L63.828 60.9995L87.8708 85.0423C88.6515 85.823 88.6515 87.0887 87.8708 87.8694L87.8694 87.8708C87.0888 88.6514 85.8231 88.6514 85.0424 87.8708L60.9996 63.8279L36.9565 87.8709C36.1759 88.6516 34.9102 88.6516 34.1295 87.8709L34.1281 87.8695C33.3475 87.0889 33.3475 85.8232 34.1281 85.0425L58.1711 60.9995L34.1293 36.9577C33.3487 36.177 33.3487 34.9113 34.1293 34.1307Z" id="Mask" fill="#D3D3D3" fill-rule="evenodd" stroke="none" />
    <g clip-path="url(#mask_1)">
      <g id="Color/White" transform="translate(-1 0)">
        <path d="M0 0L122 0L122 122L0 122L0 0Z" id="Rectangle" fill="#D62323" stroke="none" />
      </g>
    </g>
  </g>
</svg>