<svg xmlns="http://www.w3.org/2000/svg" xmlns:xlink="http://www.w3.org/1999/xlink" width="47" height="47" viewBox="0 0 47 47"><defs><clipPath id="a"><path d="M3.615,28A1.73,1.73,0,0,1,1.9,26.263V12.8a1.71,1.71,0,0,1-.391,0,1.7,1.7,0,0,1-1.142-.653,1.745,1.745,0,0,1,.3-2.432L2.087,8.575a.537.537,0,0,1,.76.093.552.552,0,0,1-.092.768L1.326,10.568a.644.644,0,0,0-.11.9.627.627,0,0,0,.421.241.64.64,0,0,0,.078,0,.621.621,0,0,0,.388-.136L13.159,2.813a.536.536,0,0,1,.668,0l11.056,8.764a.619.619,0,0,0,.387.135.632.632,0,0,0,.5-.246.644.644,0,0,0-.109-.9L13.9,1.246l0,0,0,0a.631.631,0,0,0-.789-.008L6.16,6.736a.537.537,0,0,1-.76-.093.55.55,0,0,1,.092-.768l6.944-5.5a1.727,1.727,0,0,1,.507-.278,1.682,1.682,0,0,1,1.114,0,1.717,1.717,0,0,1,.514.291L26.327,9.707a1.745,1.745,0,0,1,.3,2.432,1.7,1.7,0,0,1-1.142.653,1.746,1.746,0,0,1-.213.013,1.7,1.7,0,0,1-.178-.01V26.263A1.73,1.73,0,0,1,23.371,28Zm16.308-1.384v.29h3.448a.641.641,0,0,0,.637-.643V12.273L13.493,3.938,2.978,12.273v13.99a.641.641,0,0,0,.637.643H7.063V21.4a6.43,6.43,0,1,1,12.86,0v.837a.541.541,0,1,1-1.082,0V21.4a5.348,5.348,0,1,0-10.7,0v5.5h10.7v-.29a.541.541,0,1,1,1.082,0Zm-1.082-2.187a.541.541,0,1,1,1.082,0h0a.541.541,0,1,1-1.082,0ZM16.165,14.306a2.063,2.063,0,0,1-.741-.973H11.562a2.064,2.064,0,0,1-.741.973,2.022,2.022,0,0,1-1.179.376,2.074,2.074,0,0,1-1.827-3,2.074,2.074,0,0,1,1.827-3,2.023,2.023,0,0,1,1.179.376,2.063,2.063,0,0,1,.741.973h3.861a2.063,2.063,0,0,1,.741-.973,2.023,2.023,0,0,1,1.179-.376,2.074,2.074,0,0,1,1.827,3,2.074,2.074,0,0,1-1.827,3A2.022,2.022,0,0,1,16.165,14.306Zm-.318-2.066a.543.543,0,0,1,.538.485.965.965,0,1,0,1.721-.71.551.551,0,0,1,0-.672.969.969,0,1,0-1.721-.71.543.543,0,0,1-.538.485H11.138a.543.543,0,0,1-.537-.485.965.965,0,1,0-1.721.71.551.551,0,0,1,0,.672.969.969,0,1,0,1.721.71.542.542,0,0,1,.537-.485ZM3.723,8.023a.551.551,0,0,1,.036-.772.537.537,0,0,1,.765.037.551.551,0,0,1-.036.772h0a.537.537,0,0,1-.764-.037Z" fill="#fff"/></clipPath></defs><g transform="translate(-279 -114)"><circle cx="23.5" cy="23.5" r="23.5" transform="translate(279 114)" fill="#fec118"/><g transform="translate(289 122)"><g transform="translate(0 0)"><g transform="translate(0 0)"><path d="M3.615,28A1.73,1.73,0,0,1,1.9,26.263V12.8a1.71,1.71,0,0,1-.391,0,1.7,1.7,0,0,1-1.142-.653,1.745,1.745,0,0,1,.3-2.432L2.087,8.575a.537.537,0,0,1,.76.093.552.552,0,0,1-.092.768L1.326,10.568a.644.644,0,0,0-.11.9.627.627,0,0,0,.421.241.64.64,0,0,0,.078,0,.621.621,0,0,0,.388-.136L13.159,2.813a.536.536,0,0,1,.668,0l11.056,8.764a.619.619,0,0,0,.387.135.632.632,0,0,0,.5-.246.644.644,0,0,0-.109-.9L13.9,1.246l0,0,0,0a.631.631,0,0,0-.789-.008L6.16,6.736a.537.537,0,0,1-.76-.093.55.55,0,0,1,.092-.768l6.944-5.5a1.727,1.727,0,0,1,.507-.278,1.682,1.682,0,0,1,1.114,0,1.717,1.717,0,0,1,.514.291L26.327,9.707a1.745,1.745,0,0,1,.3,2.432,1.7,1.7,0,0,1-1.142.653,1.746,1.746,0,0,1-.213.013,1.7,1.7,0,0,1-.178-.01V26.263A1.73,1.73,0,0,1,23.371,28Zm16.308-1.384v.29h3.448a.641.641,0,0,0,.637-.643V12.273L13.493,3.938,2.978,12.273v13.99a.641.641,0,0,0,.637.643H7.063V21.4a6.43,6.43,0,1,1,12.86,0v.837a.541.541,0,1,1-1.082,0V21.4a5.348,5.348,0,1,0-10.7,0v5.5h10.7v-.29a.541.541,0,1,1,1.082,0Zm-1.082-2.187a.541.541,0,1,1,1.082,0h0a.541.541,0,1,1-1.082,0ZM16.165,14.306a2.063,2.063,0,0,1-.741-.973H11.562a2.064,2.064,0,0,1-.741.973,2.022,2.022,0,0,1-1.179.376,2.074,2.074,0,0,1-1.827-3,2.074,2.074,0,0,1,1.827-3,2.023,2.023,0,0,1,1.179.376,2.063,2.063,0,0,1,.741.973h3.861a2.063,2.063,0,0,1,.741-.973,2.023,2.023,0,0,1,1.179-.376,2.074,2.074,0,0,1,1.827,3,2.074,2.074,0,0,1-1.827,3A2.022,2.022,0,0,1,16.165,14.306Zm-.318-2.066a.543.543,0,0,1,.538.485.965.965,0,1,0,1.721-.71.551.551,0,0,1,0-.672.969.969,0,1,0-1.721-.71.543.543,0,0,1-.538.485H11.138a.543.543,0,0,1-.537-.485.965.965,0,1,0-1.721.71.551.551,0,0,1,0,.672.969.969,0,1,0,1.721.71.542.542,0,0,1,.537-.485ZM3.723,8.023a.551.551,0,0,1,.036-.772.537.537,0,0,1,.765.037.551.551,0,0,1-.036.772h0a.537.537,0,0,1-.764-.037Z" fill="#fff"/><g clip-path="url(#a)"><g transform="translate(-0.065 -0.082)"><rect width="27" height="28.109" fill="none"/><rect width="27" height="28.109" fill="#49270a"/></g></g></g></g></g></g></svg>