<?xml version="1.0" encoding="UTF-8"?>
<svg width="24px" height="20px" viewBox="0 0 24 20" version="1.1" xmlns="http://www.w3.org/2000/svg" xmlns:xlink="http://www.w3.org/1999/xlink">
    <!-- Generator: Sketch 58 (84663) - https://sketch.com -->
    <title>icon-medic-kit</title>
    <desc>Created with Sketch.</desc>
    <g id="--" stroke="none" stroke-width="1" fill="none" fill-rule="evenodd">
        <g id="Área-do-Veterinário" transform="translate(-447.000000, -1152.000000)" fill="#FFFFFF">
            <g id="icon-medic-kit/white" transform="translate(459.000000, 1162.000000) scale(-1, 1) translate(-459.000000, -1162.000000) translate(447.000000, 1152.000000)">
                <g id="first-aid-kit">
                    <path d="M17.000016,9.26940657 L14.5000318,9.26940657 L14.5000318,6.83410962 C14.5000318,6.56511417 14.2761568,6.34703196 14.000016,6.34703196 L10.0000318,6.34703196 C9.72389117,6.34703196 9.50001597,6.56511417 9.50001597,6.83410962 L9.50001597,9.26940657 L7.00003163,9.26940657 C6.72389099,9.26940657 6.50001597,9.48748878 6.50001597,9.75648423 L6.50001597,13.6529685 C6.50001597,13.9219636 6.72389099,14.1400458 7.00003163,14.1400458 L9.50001597,14.1400458 L9.50001597,16.5753431 C9.50001597,16.8443382 9.72389117,17.0624204 10.0000318,17.0624204 L14.000016,17.0624204 C14.2761568,17.0624204 14.5000318,16.8443382 14.5000318,16.5753431 L14.5000318,14.1400458 L17.000016,14.1400458 C17.2761569,14.1400458 17.5000319,13.9219636 17.5000319,13.6529685 L17.5000319,9.75648423 C17.5000319,9.48748878 17.2761569,9.26940657 17.000016,9.26940657 Z M16.5000004,13.1658906 L14.0000158,13.1658906 C13.7238754,13.1658906 13.5000004,13.3839727 13.5000004,13.6529679 L13.5000004,16.0882648 L10.5000004,16.0882648 L10.5000004,13.6529679 C10.5000004,13.3839727 10.2761253,13.1658906 9.99998465,13.1658906 L7.50000036,13.1658906 L7.50000036,10.2435161 L9.99998465,10.2435161 C10.2761253,10.2435161 10.5000004,10.0254338 10.5000004,9.75643829 L10.5000004,7.32114156 L13.5000004,7.32114156 L13.5000004,9.75643829 C13.5000004,10.0254338 13.7238754,10.2435161 14.0000158,10.2435161 L16.5000004,10.2435161 L16.5000004,13.1658906 Z" id="Shape"></path>
                    <path d="M21.1205148,3.42465765 L15.9999847,3.42465765 L15.9999847,2.03068492 C15.9999847,0.919223742 15.0549836,0.0152054796 13.8934692,0.0152054796 L9.92746832,0.0152054796 C8.81048425,0.0152054796 7.99996877,0.862694113 7.99996877,2.03068492 L7.99996877,3.42465765 L2.87948429,3.42465765 C1.28985935,3.4262559 0.00164062492,4.68114172 0,6.2296351 L0,17.1797721 C0.00164062492,18.7282648 1.28985935,19.9831507 2.87948429,19.9847492 L21.120469,19.9847492 C22.7100932,19.9831507 23.998312,18.7282648 23.9999528,17.1797721 L23.9999528,6.2296351 C23.9983592,4.68118725 22.7101404,3.4262559 21.1205148,3.42465765 Z M9,2.03068491 C9,1.51246574 9.2865,0.989360714 9.92751566,0.989360714 L13.8935155,0.989360714 C14.5034999,0.989360714 15,1.45643834 15,2.03068491 L15,3.42465753 L9,3.42465753 L9,2.03068491 Z M23.0000163,17.1783104 C22.9997357,18.1895893 22.1586574,19.0095436 21.1205163,19.0106393 L2.8794844,19.0106393 C1.84190627,19.0095889 1.00110938,18.190502 0.999984384,17.1797718 L0.999984384,6.22963478 C1.00110938,5.21890412 1.84190627,4.39986301 2.8794844,4.39876712 L21.1204691,4.39876712 C22.1580476,4.39986301 22.9988912,5.21890412 23.0000163,6.22963478 L23.0000163,17.1783104 L23.0000163,17.1783104 Z" id="Shape"></path>
                </g>
            </g>
        </g>
    </g>
</svg>