<svg xmlns="http://www.w3.org/2000/svg" xmlns:xlink="http://www.w3.org/1999/xlink" width="44" height="44" viewBox="0 0 44 44"><defs><clipPath id="a"><path d="M0,12.482a12.418,12.418,0,0,0,23.992,4.566.848.848,0,1,0-1.577-.623A10.743,10.743,0,1,1,12.426,1.7a10.679,10.679,0,0,1,9.989,6.836.848.848,0,1,0,1.577-.623A12.419,12.419,0,0,0,0,12.482Zm12.675-5.14-4.5,4.52a.854.854,0,0,0-.019,1.223l4.519,4.539a.845.845,0,0,0,1.2,0,.854.854,0,0,0,0-1.2L10.8,13.333H25.135a.851.851,0,0,0,0-1.7H10.8l3.073-3.087a.85.85,0,0,0-.6-1.452A.839.839,0,0,0,12.675,7.342Z" transform="translate(25.982 24.965) rotate(180)"/></clipPath></defs><g transform="translate(-10 -10)"><circle cx="22" cy="22" r="22" transform="translate(10 10)" fill="#fec118"/><g transform="translate(19.018 20)"><g transform="translate(0 0.018)"><path d="M0,12.482a12.418,12.418,0,0,0,23.992,4.566.848.848,0,1,0-1.577-.623A10.743,10.743,0,1,1,12.426,1.7a10.679,10.679,0,0,1,9.989,6.836.848.848,0,1,0,1.577-.623A12.419,12.419,0,0,0,0,12.482Zm12.675-5.14-4.5,4.52a.854.854,0,0,0-.019,1.223l4.519,4.539a.845.845,0,0,0,1.2,0,.854.854,0,0,0,0-1.2L10.8,13.333H25.135a.851.851,0,0,0,0-1.7H10.8l3.073-3.087a.85.85,0,0,0-.6-1.452A.839.839,0,0,0,12.675,7.342Z" transform="translate(25.982 24.965) rotate(180)"/><g clip-path="url(#a)"><g transform="translate(-0.007 -0.097)"><rect width="26.053" height="25.106" fill="none"/><rect width="26.053" height="25.106" fill="#49270a"/></g></g></g></g></g></svg>