<svg xmlns="http://www.w3.org/2000/svg" width="9.703" height="12" viewBox="0 0 9.703 12"><path d="M4.921,0a4.8,4.8,0,0,0-.75.047h.047a3.825,3.825,0,0,0-.586.187,2.187,2.187,0,0,0-.445.281A2.672,2.672,0,0,0,2.109,1.758,3.219,3.219,0,0,0,1.875,3.4a3.493,3.493,0,0,0,.632,1.641,3.1,3.1,0,0,0,1.266,1.1,2.56,2.56,0,0,0,1.477.211,2.429,2.429,0,0,0,1.359-.726A3.78,3.78,0,0,0,7.617,4.1a3.219,3.219,0,0,0,.14-1.711A2.772,2.772,0,0,0,6.984.937,3.249,3.249,0,0,0,6.047.258,3.3,3.3,0,0,0,4.921,0ZM2.578,3a2.274,2.274,0,0,1,.656-1.594A2.107,2.107,0,0,1,5.25.8,2.263,2.263,0,0,1,6.4,1.429a2.279,2.279,0,0,1,.633,1.1,2.486,2.486,0,0,1-.258,1.711A2.66,2.66,0,0,1,5.531,5.484a2.21,2.21,0,0,1-.7.094,2.564,2.564,0,0,1-.446-.024,1.193,1.193,0,0,1-.3-.117A2.312,2.312,0,0,1,3,4.453,2.782,2.782,0,0,1,2.578,3ZM6.422,7.172l-1.5-.047a11.171,11.171,0,0,0-1.968.093,3.762,3.762,0,0,0-1.641.75A3.553,3.553,0,0,0,0,10.687v.422l.328.141a8.74,8.74,0,0,0,2.039.539A15.315,15.315,0,0,0,4.828,12a15.353,15.353,0,0,0,2.461-.211,9.776,9.776,0,0,0,2.086-.539l.328-.141-.047-.422a3.421,3.421,0,0,0-.75-2.109A3.578,3.578,0,0,0,6.984,7.265,1.531,1.531,0,0,0,6.422,7.172Zm-.047.75L4.968,7.875q-1.078,0-1.547.023a2.66,2.66,0,0,0-.726.117,2.7,2.7,0,0,0-.633.375,2.86,2.86,0,0,0-.867.868A2.907,2.907,0,0,0,.75,10.453L.7,10.64l.328.094a9.672,9.672,0,0,0,1.781.375,15.593,15.593,0,0,0,2.016.141,15.59,15.59,0,0,0,2.015-.141,9.7,9.7,0,0,0,1.782-.375l.328-.094-.047-.187a3.141,3.141,0,0,0-.68-1.5A2.984,2.984,0,0,0,6.89,8.015,1.649,1.649,0,0,0,6.375,7.922Z" fill="#49270a" fill-rule="evenodd"/></svg>