<svg xmlns="http://www.w3.org/2000/svg" width="12" height="10" viewBox="0 0 12 10"><path d="M5.42,1.4c.164.831-.256,1.937-1.227,1.937a1.594,1.594,0,0,1-1.429-1.4l0-.015C2.6,1.085,3.018,0,3.991,0A1.593,1.593,0,0,1,5.42,1.4ZM7.042,3.31c.839.171,1.5-.61,1.65-1.374C8.855,1.114,8.443,0,7.468,0A1.592,1.592,0,0,0,6.041,1.4,1.534,1.534,0,0,0,7.042,3.31ZM6.927,1.577c.051-.259.254-.721.587-.654s.341.586.293.833-.256.722-.586.654C7.013,2.367,6.843,2,6.927,1.577Zm-2.4,0c-.049-.247-.263-.72-.587-.654-.208.042-.378.408-.293.834.08.407.344.659.541.659C4.573,2.415,4.583,1.838,4.532,1.577ZM2.568,2.767A1.653,1.653,0,0,1,2.017,4.9c-.761.359-1.548-.274-1.848-1A1.616,1.616,0,0,1,.72,1.77C1.481,1.411,2.268,2.044,2.568,2.767ZM9.993,4.9a1.616,1.616,0,0,1-.551-2.13c.3-.728,1.092-1.353,1.848-1a1.652,1.652,0,0,1,.551,2.13C11.54,4.625,10.751,5.255,9.993,4.9ZM1.075,2.626c-.188.089-.272.49-.1.9.1.234.4.657.691.519s.2-.66.1-.9S1.368,2.488,1.075,2.626Zm9.964.9a1.074,1.074,0,0,0,.073-.618c-.032-.147-.118-.3-.276-.3a.777.777,0,0,0-.592.541c-.168.4-.083.807.1.9C10.645,4.181,10.939,3.762,11.039,3.521ZM8.411,5.141a1.2,1.2,0,0,1-.928-.47,2.287,2.287,0,0,0-1.756-.782,2.287,2.287,0,0,0-1.756.782,1.2,1.2,0,0,1-.928.47A1.977,1.977,0,0,0,1.418,6.248C.59,7.715,1.383,10,3.243,10a6.151,6.151,0,0,0,1.23-.173,5.785,5.785,0,0,1,2.508,0A6.151,6.151,0,0,0,8.212,10c1.867,0,2.649-2.291,1.825-3.752A1.977,1.977,0,0,0,8.411,5.141Zm.823,3.375c-.471.784-1.3.61-2.063.451l-.01,0a6.618,6.618,0,0,0-2.868,0l-.025.005c-.771.162-1.576.33-2.047-.454a1.785,1.785,0,0,1-.037-1.835,1.171,1.171,0,0,1,.86-.66A2.048,2.048,0,0,0,4.58,5.307a1.536,1.536,0,0,1,2.3,0,2.048,2.048,0,0,0,1.537.714,1.17,1.17,0,0,1,.86.66A1.785,1.785,0,0,1,9.234,8.516Z" fill="#49270a" fill-rule="evenodd"/></svg>