<?xml version="1.0" encoding="utf-8"?>
<svg width="30px" height="30px" viewBox="0 0 30 30" version="1.1" xmlns:xlink="http://www.w3.org/1999/xlink" xmlns="http://www.w3.org/2000/svg">
  <desc>Created with Lunacy</desc>
  <defs>
    <path d="M0 12.3974C0 5.50995 5.37105 0 12.1161 0L12.1161 0.125226C18.8611 0.125226 24.2322 5.63518 24.2322 12.5226C24.2322 14.5262 23.7325 16.4046 22.8582 18.1578C24.482 19.7857 28.1043 23.5425 29.2285 24.6696C31.7267 27.1741 27.6047 32.0579 24.7318 29.0525C22.6084 26.9236 20.4849 24.7948 18.4864 22.9164C16.6128 24.0434 14.4893 24.7948 12.1161 24.7948C5.37105 24.7948 0 19.2848 0 12.3974ZM20.1102 12.5226C20.1102 7.88925 16.4879 4.25769 12.1161 4.25769C7.7443 4.25769 4.12197 8.01447 4.12197 12.5226C4.12197 17.156 7.7443 20.7875 12.1161 20.7875C16.4879 20.7875 20.1102 17.0308 20.1102 12.5226Z" id="path_1" />
    <clipPath id="mask_1">
      <use xlink:href="#path_1" />
    </clipPath>
  </defs>
  <g id="icon-search">
    <g id="Color/White">
      <path d="M0 12.3974C0 5.50995 5.37105 0 12.1161 0L12.1161 0.125226C18.8611 0.125226 24.2322 5.63518 24.2322 12.5226C24.2322 14.5262 23.7325 16.4046 22.8582 18.1578C24.482 19.7857 28.1043 23.5425 29.2285 24.6696C31.7267 27.1741 27.6047 32.0579 24.7318 29.0525C22.6084 26.9236 20.4849 24.7948 18.4864 22.9164C16.6128 24.0434 14.4893 24.7948 12.1161 24.7948C5.37105 24.7948 0 19.2848 0 12.3974ZM20.1102 12.5226C20.1102 7.88925 16.4879 4.25769 12.1161 4.25769C7.7443 4.25769 4.12197 8.01447 4.12197 12.5226C4.12197 17.156 7.7443 20.7875 12.1161 20.7875C16.4879 20.7875 20.1102 17.0308 20.1102 12.5226Z" id="Mask" fill="#5A5A5A" fill-rule="evenodd" stroke="none" />
      <g clip-path="url(#mask_1)">
        <g id="Color/White" transform="translate(-1 -1)">
          <path d="M0 0L32 0L32 32L0 32L0 0Z" id="Rectangle" fill="#F7A71E" stroke="none" />
        </g>
      </g>
    </g>
  </g>
</svg>