<svg xmlns="http://www.w3.org/2000/svg" xmlns:xlink="http://www.w3.org/1999/xlink" width="44" height="44" viewBox="0 0 44 44"><defs><clipPath id="a"><path d="M12.217,18.834a9.7,9.7,0,0,0-2.194-.264,9.738,9.738,0,0,0-2.2.264,9.828,9.828,0,0,1-2.153.333,3.476,3.476,0,0,1-3.117-2.015,5.809,5.809,0,0,1-.077-5.177A3.472,3.472,0,0,1,5.324,9.853a2.043,2.043,0,0,0,1.625-.9,3.9,3.9,0,0,1,6.144,0,2.045,2.045,0,0,0,1.625.9,3.464,3.464,0,0,1,2.844,2.122,5.816,5.816,0,0,1-.076,5.18,3.477,3.477,0,0,1-3.118,2.011A9.842,9.842,0,0,1,12.217,18.834Zm-4.2-8.661a3.474,3.474,0,0,1-2.689,1.37,2.076,2.076,0,0,0-1.5,1.264,3.7,3.7,0,0,0,.066,3.516,2,2,0,0,0,1.907,1.132,7.788,7.788,0,0,0,1.673-.26l.046-.01a11.087,11.087,0,0,1,2.511-.3,11.073,11.073,0,0,1,2.509.3l.022.005a7.807,7.807,0,0,0,1.682.259,2.006,2.006,0,0,0,1.923-1.125,3.7,3.7,0,0,0,.065-3.516,2.073,2.073,0,0,0-1.5-1.264,3.474,3.474,0,0,1-2.689-1.37,2.816,2.816,0,0,0-2.01-.987A2.816,2.816,0,0,0,8.013,10.172Zm9.474-.788c-1.177-.609-1.6-2.4-.965-4.081a3,3,0,0,1,2.443-2.108,1.717,1.717,0,0,1,.792.2c1.3.671,1.51,2.643.964,4.083a2.994,2.994,0,0,1-2.438,2.106A1.708,1.708,0,0,1,17.487,9.384Zm.439-3.355c-.295.775-.146,1.546.181,1.716a.459.459,0,0,0,.214.053c.435,0,.841-.643,1-1.049a2.239,2.239,0,0,0,.128-1.187c-.027-.135-.139-.571-.482-.571C18.641,4.992,18.183,5.347,17.926,6.029ZM.3,7.476C-.341,5.8.083,4,1.259,3.393a1.7,1.7,0,0,1,.794-.2A3,3,0,0,1,4.493,5.3c.547,1.44.332,3.41-.964,4.081a1.706,1.706,0,0,1-.794.2A2.994,2.994,0,0,1,.3,7.476ZM1.88,5.034C1.552,5.2,1.4,5.974,1.7,6.75c.154.405.564,1.047,1,1.047a.448.448,0,0,0,.208-.052c.521-.271.343-1.292.181-1.716s-.583-1.047-1-1.047A.455.455,0,0,0,1.88,5.034ZM4.835,3.712l0-.016,0-.014a3.872,3.872,0,0,1,.6-2.877A1.9,1.9,0,0,1,6.983,0c1.17,0,2.221,1.126,2.5,2.677a3.893,3.893,0,0,1-.6,2.9,1.885,1.885,0,0,1-1.545.809C6.167,6.389,5.115,5.263,4.835,3.712ZM6.9,1.768c-.364.081-.66.781-.512,1.6.14.781.6,1.264.947,1.264a.488.488,0,0,0,.409-.21,2.078,2.078,0,0,0,.184-1.4c-.074-.412-.4-1.266-.921-1.266A.463.463,0,0,0,6.9,1.768Zm5.423,4.575c-1.3-.29-2.071-1.9-1.751-3.667C10.851,1.125,11.9,0,13.069,0a1.881,1.881,0,0,1,1.539.806,3.961,3.961,0,0,1,.6,2.9c-.235,1.3-1.184,2.677-2.482,2.677A1.821,1.821,0,0,1,12.324,6.343Zm-.2-3.321c-.146.816.15,1.515.513,1.6a.51.51,0,0,0,.113.014c.5,0,.824-.776.912-1.266.08-.447.061-1.47-.512-1.6a.517.517,0,0,0-.113-.012C12.533,1.756,12.213,2.513,12.122,3.022Z" fill="#fec118"/></clipPath></defs><g transform="translate(-10 -10)"><circle cx="22" cy="22" r="22" transform="translate(10 10)" fill="#fec118"/><g transform="translate(22 21)"><rect width="21" height="23" fill="none"/><g transform="translate(0.001 1.917)"><path d="M12.217,18.834a9.7,9.7,0,0,0-2.194-.264,9.738,9.738,0,0,0-2.2.264,9.828,9.828,0,0,1-2.153.333,3.476,3.476,0,0,1-3.117-2.015,5.809,5.809,0,0,1-.077-5.177A3.472,3.472,0,0,1,5.324,9.853a2.043,2.043,0,0,0,1.625-.9,3.9,3.9,0,0,1,6.144,0,2.045,2.045,0,0,0,1.625.9,3.464,3.464,0,0,1,2.844,2.122,5.816,5.816,0,0,1-.076,5.18,3.477,3.477,0,0,1-3.118,2.011A9.842,9.842,0,0,1,12.217,18.834Zm-4.2-8.661a3.474,3.474,0,0,1-2.689,1.37,2.076,2.076,0,0,0-1.5,1.264,3.7,3.7,0,0,0,.066,3.516,2,2,0,0,0,1.907,1.132,7.788,7.788,0,0,0,1.673-.26l.046-.01a11.087,11.087,0,0,1,2.511-.3,11.073,11.073,0,0,1,2.509.3l.022.005a7.807,7.807,0,0,0,1.682.259,2.006,2.006,0,0,0,1.923-1.125,3.7,3.7,0,0,0,.065-3.516,2.073,2.073,0,0,0-1.5-1.264,3.474,3.474,0,0,1-2.689-1.37,2.816,2.816,0,0,0-2.01-.987A2.816,2.816,0,0,0,8.013,10.172Zm9.474-.788c-1.177-.609-1.6-2.4-.965-4.081a3,3,0,0,1,2.443-2.108,1.717,1.717,0,0,1,.792.2c1.3.671,1.51,2.643.964,4.083a2.994,2.994,0,0,1-2.438,2.106A1.708,1.708,0,0,1,17.487,9.384Zm.439-3.355c-.295.775-.146,1.546.181,1.716a.459.459,0,0,0,.214.053c.435,0,.841-.643,1-1.049a2.239,2.239,0,0,0,.128-1.187c-.027-.135-.139-.571-.482-.571C18.641,4.992,18.183,5.347,17.926,6.029ZM.3,7.476C-.341,5.8.083,4,1.259,3.393a1.7,1.7,0,0,1,.794-.2A3,3,0,0,1,4.493,5.3c.547,1.44.332,3.41-.964,4.081a1.706,1.706,0,0,1-.794.2A2.994,2.994,0,0,1,.3,7.476ZM1.88,5.034C1.552,5.2,1.4,5.974,1.7,6.75c.154.405.564,1.047,1,1.047a.448.448,0,0,0,.208-.052c.521-.271.343-1.292.181-1.716s-.583-1.047-1-1.047A.455.455,0,0,0,1.88,5.034ZM4.835,3.712l0-.016,0-.014a3.872,3.872,0,0,1,.6-2.877A1.9,1.9,0,0,1,6.983,0c1.17,0,2.221,1.126,2.5,2.677a3.893,3.893,0,0,1-.6,2.9,1.885,1.885,0,0,1-1.545.809C6.167,6.389,5.115,5.263,4.835,3.712ZM6.9,1.768c-.364.081-.66.781-.512,1.6.14.781.6,1.264.947,1.264a.488.488,0,0,0,.409-.21,2.078,2.078,0,0,0,.184-1.4c-.074-.412-.4-1.266-.921-1.266A.463.463,0,0,0,6.9,1.768Zm5.423,4.575c-1.3-.29-2.071-1.9-1.751-3.667C10.851,1.125,11.9,0,13.069,0a1.881,1.881,0,0,1,1.539.806,3.961,3.961,0,0,1,.6,2.9c-.235,1.3-1.184,2.677-2.482,2.677A1.821,1.821,0,0,1,12.324,6.343Zm-.2-3.321c-.146.816.15,1.515.513,1.6a.51.51,0,0,0,.113.014c.5,0,.824-.776.912-1.266.08-.447.061-1.47-.512-1.6a.517.517,0,0,0-.113-.012C12.533,1.756,12.213,2.513,12.122,3.022Z" fill="#fec118"/><g clip-path="url(#a)"><g transform="translate(-2.101 -4.792)"><rect width="25.2" height="28.75" fill="none"/><rect width="25.2" height="28.75" fill="#49270a"/></g></g></g></g></g></svg>