<?xml version="1.0" encoding="UTF-8"?>
<svg width="20px" height="15px" viewBox="0 0 20 15" version="1.1" xmlns="http://www.w3.org/2000/svg" xmlns:xlink="http://www.w3.org/1999/xlink">
    <!-- Generator: Sketch 58 (84663) - https://sketch.com -->
    <title>sign-in-alt</title>
    <desc>Created with Sketch.</desc>
    <g id="--" stroke="none" stroke-width="1" fill="none" fill-rule="evenodd">
        <g id="--DayCare" transform="translate(-405.000000, -111.000000)" fill="#49270A">
            <g id="Group" transform="translate(393.000000, 97.000000)">
                <g id="sign-in-alt" transform="translate(12.000000, 14.000000)">
                    <g id="Shape" transform="translate(10.000000, 7.500000) scale(1, -1) translate(-10.000000, -7.500000) ">
                        <path d="M16.25,14.6564885 L12.96875,14.6564885 C12.7109375,14.6564885 12.5,14.4503813 12.5,14.1984733 L12.5,12.6717554 C12.5,12.4198474 12.7109375,12.2137402 12.96875,12.2137402 L16.25,12.2137402 C16.9414064,12.2137402 17.5,11.6679391 17.5,10.9923664 L17.5,3.66412214 C17.5,2.98854966 16.9414064,2.44274816 16.25,2.44274816 L12.96875,2.44274816 C12.7109375,2.44274816 12.5,2.23664116 12.5,1.9847329 L12.5,0.458015267 C12.5,0.206106865 12.7109375,0 12.96875,0 L16.25,0 C18.3203126,0 20,1.64122134 20,3.66412214 L20,10.9923664 C20,13.0152669 18.3203126,14.6564885 16.25,14.6564885 Z M14.4140627,6.98473266 L7.85156291,0.57251909 C7.26562525,-1.97283118e-09 6.25000004,0.40076336 6.25000004,1.22137401 L6.25000004,4.88549623 L0.93750005,4.88549623 C0.417968748,4.88549623 0,5.29389304 0,5.80152686 L0,9.46564897 C0,9.97328235 0.417968748,10.3816796 0.93750005,10.3816796 L6.25000004,10.3816796 L6.25000004,14.0458013 C6.25000004,14.8664116 7.26562525,15.2671746 7.85156291,14.6946563 L14.4140627,8.28244273 C14.7773431,7.92366441 14.7773431,7.34351141 14.4140627,6.98473266 Z"></path>
                    </g>
                </g>
            </g>
        </g>
    </g>
</svg>