<svg xmlns="http://www.w3.org/2000/svg" xmlns:xlink="http://www.w3.org/1999/xlink" width="44" height="43" viewBox="0 0 44 43"><defs><clipPath id="a"><path d="M12.123,23.925A11.837,11.837,0,0,1,8.63,23.4a12.044,12.044,0,0,1-3.179-1.521A12.279,12.279,0,0,1,.912,16.23,12.648,12.648,0,0,1,2.035,4.637,12.355,12.355,0,0,1,3.514,2.778a12.062,12.062,0,0,1,4-2.737A.508.508,0,0,1,7.716,0a.513.513,0,0,1,.223.051.54.54,0,0,1,.248.71,11.6,11.6,0,0,0-.2,9.125,11.035,11.035,0,0,0,10.226,7,10.775,10.775,0,0,0,4.227-.864.508.508,0,0,1,.2-.04.518.518,0,0,1,.375.163.536.536,0,0,1,.136.281.543.543,0,0,1-.042.311,12.511,12.511,0,0,1-1.143,2.007,12.354,12.354,0,0,1-1.474,1.74,12.193,12.193,0,0,1-1.763,1.431,12.021,12.021,0,0,1-4.3,1.784,11.78,11.78,0,0,1-2.309.229ZM1.048,11.517a11.408,11.408,0,0,0,3.243,8.022,10.877,10.877,0,0,0,7.833,3.324,11,11,0,0,0,9.422-5.4,11.854,11.854,0,0,1-3.317.474,11.931,11.931,0,0,1-2.443-.252,11.851,11.851,0,0,1-2.275-.723,12.038,12.038,0,0,1-2.059-1.144A12.275,12.275,0,0,1,9.659,14.3a12.486,12.486,0,0,1-3.3-6.274,12.794,12.794,0,0,1-.246-2.5,12.469,12.469,0,0,1,.625-3.92A11.4,11.4,0,0,0,1.048,11.517Zm15.186-.862a.407.407,0,0,1-.036-.533q.089-.117.37-.437l.521-.608.448-.533.344-.395a3.158,3.158,0,0,0,.219-.283H16.765a1.3,1.3,0,0,1-.417-.048q-.141-.053-.141-.267a.318.318,0,0,1,.109-.251.445.445,0,0,1,.3-.1h2.062a.908.908,0,0,1,.437.085.322.322,0,0,1,.151.309.435.435,0,0,1-.031.155.562.562,0,0,1-.068.128l-.1.123-.156.176-1.641,1.877h1.75a.451.451,0,0,1,.323.1.345.345,0,0,1,.109.261.329.329,0,0,1-.1.251.466.466,0,0,1-.323.1H16.614l-.045,0A.554.554,0,0,1,16.233,10.655Zm-5.422-2.6a.51.51,0,0,1-.047-.688q.109-.133.458-.533l.672-.763.578-.64.427-.491q.167-.2.271-.352H11.5a1.636,1.636,0,0,1-.521-.064q-.177-.059-.177-.331a.4.4,0,0,1,.135-.315.553.553,0,0,1,.38-.117h2.557a1.138,1.138,0,0,1,.547.107.4.4,0,0,1,.193.384.545.545,0,0,1-.036.192.714.714,0,0,1-.083.16l-.1.128-.193.219L12.15,7.305h2.187a.569.569,0,0,1,.4.128.432.432,0,0,1,.135.331.41.41,0,0,1-.135.315.584.584,0,0,1-.406.123H11.291l-.053,0A.7.7,0,0,1,10.811,8.057Zm13.583-.144H21.358a.7.7,0,0,1-.479-.144.51.51,0,0,1-.047-.688q.109-.133.458-.533l.672-.763.563-.64.432-.5q.167-.2.271-.352H21.561a1.634,1.634,0,0,1-.521-.064q-.177-.059-.177-.331A.4.4,0,0,1,21,3.583a.554.554,0,0,1,.38-.117h2.583a1.139,1.139,0,0,1,.547.107.4.4,0,0,1,.193.384.545.545,0,0,1-.036.192.717.717,0,0,1-.083.16l-.125.155-.193.219L22.207,7.033h2.2a.569.569,0,0,1,.4.128.432.432,0,0,1,.135.331.41.41,0,0,1-.135.315.582.582,0,0,1-.417.107Z"/></clipPath></defs><g transform="translate(-427 -114)"><ellipse cx="22" cy="21.5" rx="22" ry="21.5" transform="translate(427 114)" fill="#fec118"/><g transform="translate(437 124)"><g transform="translate(0 0.011)"><g transform="translate(0)"><path d="M12.123,23.925A11.837,11.837,0,0,1,8.63,23.4a12.044,12.044,0,0,1-3.179-1.521A12.279,12.279,0,0,1,.912,16.23,12.648,12.648,0,0,1,2.035,4.637,12.355,12.355,0,0,1,3.514,2.778a12.062,12.062,0,0,1,4-2.737A.508.508,0,0,1,7.716,0a.513.513,0,0,1,.223.051.54.54,0,0,1,.248.71,11.6,11.6,0,0,0-.2,9.125,11.035,11.035,0,0,0,10.226,7,10.775,10.775,0,0,0,4.227-.864.508.508,0,0,1,.2-.04.518.518,0,0,1,.375.163.536.536,0,0,1,.136.281.543.543,0,0,1-.042.311,12.511,12.511,0,0,1-1.143,2.007,12.354,12.354,0,0,1-1.474,1.74,12.193,12.193,0,0,1-1.763,1.431,12.021,12.021,0,0,1-4.3,1.784,11.78,11.78,0,0,1-2.309.229ZM1.048,11.517a11.408,11.408,0,0,0,3.243,8.022,10.877,10.877,0,0,0,7.833,3.324,11,11,0,0,0,9.422-5.4,11.854,11.854,0,0,1-3.317.474,11.931,11.931,0,0,1-2.443-.252,11.851,11.851,0,0,1-2.275-.723,12.038,12.038,0,0,1-2.059-1.144A12.275,12.275,0,0,1,9.659,14.3a12.486,12.486,0,0,1-3.3-6.274,12.794,12.794,0,0,1-.246-2.5,12.469,12.469,0,0,1,.625-3.92A11.4,11.4,0,0,0,1.048,11.517Zm15.186-.862a.407.407,0,0,1-.036-.533q.089-.117.37-.437l.521-.608.448-.533.344-.395a3.158,3.158,0,0,0,.219-.283H16.765a1.3,1.3,0,0,1-.417-.048q-.141-.053-.141-.267a.318.318,0,0,1,.109-.251.445.445,0,0,1,.3-.1h2.062a.908.908,0,0,1,.437.085.322.322,0,0,1,.151.309.435.435,0,0,1-.031.155.562.562,0,0,1-.068.128l-.1.123-.156.176-1.641,1.877h1.75a.451.451,0,0,1,.323.1.345.345,0,0,1,.109.261.329.329,0,0,1-.1.251.466.466,0,0,1-.323.1H16.614l-.045,0A.554.554,0,0,1,16.233,10.655Zm-5.422-2.6a.51.51,0,0,1-.047-.688q.109-.133.458-.533l.672-.763.578-.64.427-.491q.167-.2.271-.352H11.5a1.636,1.636,0,0,1-.521-.064q-.177-.059-.177-.331a.4.4,0,0,1,.135-.315.553.553,0,0,1,.38-.117h2.557a1.138,1.138,0,0,1,.547.107.4.4,0,0,1,.193.384.545.545,0,0,1-.036.192.714.714,0,0,1-.083.16l-.1.128-.193.219L12.15,7.305h2.187a.569.569,0,0,1,.4.128.432.432,0,0,1,.135.331.41.41,0,0,1-.135.315.584.584,0,0,1-.406.123H11.291l-.053,0A.7.7,0,0,1,10.811,8.057Zm13.583-.144H21.358a.7.7,0,0,1-.479-.144.51.51,0,0,1-.047-.688q.109-.133.458-.533l.672-.763.563-.64.432-.5q.167-.2.271-.352H21.561a1.634,1.634,0,0,1-.521-.064q-.177-.059-.177-.331A.4.4,0,0,1,21,3.583a.554.554,0,0,1,.38-.117h2.583a1.139,1.139,0,0,1,.547.107.4.4,0,0,1,.193.384.545.545,0,0,1-.036.192.717.717,0,0,1-.083.16l-.125.155-.193.219L22.207,7.033h2.2a.569.569,0,0,1,.4.128.432.432,0,0,1,.135.331.41.41,0,0,1-.135.315.582.582,0,0,1-.417.107Z"/><g transform="translate(0)" clip-path="url(#a)"><g transform="translate(-0.078 -0.111)"><rect width="25.065" height="24.133" fill="none"/><rect width="25.065" height="24.133" fill="#49270a"/></g></g></g></g></g></g></svg>