<?xml version="1.0" encoding="UTF-8"?>
<svg width="121px" height="122px" viewBox="0 0 121 122" version="1.1" xmlns="http://www.w3.org/2000/svg" xmlns:xlink="http://www.w3.org/1999/xlink">
    <!-- Generator: sketchtool 54.1 (76490) - https://sketchapp.com -->
    <title>34F0AEE4-DB46-4CBF-A838-6D5F032B15ED</title>
    <desc>Created with sketchtool.</desc>
    <g id="Gerador" stroke="none" stroke-width="1" fill="none" fill-rule="evenodd">
        <g id="Cancelar-pedido-Copy" transform="translate(-127.000000, -279.000000)" fill="#05B446" fill-rule="nonzero">
            <g id="sucesso-copy-3" transform="translate(127.000000, 279.000000)">
                <path d="M60.5,117.933333 C91.6856789,117.933333 116.966667,92.4434118 116.966667,61 C116.966667,29.5565882 91.6856789,4.06666667 60.5,4.06666667 C29.3143211,4.06666667 4.03333333,29.5565882 4.03333333,61 C4.03333333,92.4434118 29.3143211,117.933333 60.5,117.933333 Z M60.5,122 C27.0867726,122 0,94.6893697 0,61 C0,27.3106303 27.0867726,0 60.5,0 C93.9132274,0 121,27.3106303 121,61 C121,94.6893697 93.9132274,122 60.5,122 Z M91.7664262,41.5576522 C92.5539835,40.7635861 93.8308662,40.7635861 94.6184235,41.5576522 C95.4059808,42.3517182 95.4059808,43.6391537 94.6184235,44.4332197 L56.0787099,83.2914434 C55.3037475,84.0728105 54.0517326,84.0871196 53.2594028,83.323665 C36.699926,67.3676714 32.5354071,63.168735 32.5354071,61.5869012 C32.5354071,60.4639222 33.4382995,59.5535679 34.5520738,59.5535679 C35.5519628,59.5535679 36.3818912,60.2872699 36.54116,61.2498372 C36.5626725,61.0446883 36.5559951,61.0116617 36.5440663,60.9820376 C36.6851728,61.1338178 36.9483586,61.4361396 37.2935702,61.8150715 C38.1080519,62.7091118 39.3466308,63.9948431 41.0032318,65.665135 C44.0991419,68.7866312 48.6394998,73.235857 54.6213398,79.0097228 L91.7664262,41.5576522 Z" id="Combined-Shape"></path>
            </g>
        </g>
    </g>
</svg>