<?xml version="1.0" encoding="UTF-8"?>
<svg width="53px" height="53px" viewBox="0 0 53 53" version="1.1" xmlns="http://www.w3.org/2000/svg" xmlns:xlink="http://www.w3.org/1999/xlink">
    <!-- Generator: Sketch 58 (84663) - https://sketch.com -->
    <title>Combined Shape</title>
    <desc>Created with Sketch.</desc>
    <g id="Page-1" stroke="none" stroke-width="1" fill="none" fill-rule="evenodd">
        <g id="Início-Usuário-Logado" transform="translate(-75.000000, -728.000000)" fill="#F7A71E" fill-rule="nonzero">
            <g id="Group-6-Copy" transform="translate(73.000000, 728.000000)">
                <g id="Group-8">
                    <g id="pet" transform="translate(2.000000, 0.000000)">
                        <g id="Combined-Shape">
                            <path d="M26.0698376,0.109891443 C26.335413,-0.0366304811 26.6576371,-0.0366304811 26.9232125,0.109891443 L26.9232125,0.109891443 L51.5429904,13.6919328 C52.9054308,14.4434236 53.4005826,16.1570786 52.6490208,17.5193902 C51.897459,18.8817018 50.1836419,19.3768068 48.8212014,18.6253161 L48.8212014,18.6253161 L48.5817971,18.4937003 L48.5817971,47.7000359 C50.0454985,47.7000359 51.2320297,48.8864549 51.2320297,50.3500179 C51.2320297,51.8135809 50.0454985,53 48.5817971,53 L48.5817971,53 L4.41125299,53 C2.94755158,53 1.76102034,51.8135809 1.76102034,50.3500179 C1.76102034,48.8864549 2.94755158,47.7000359 4.41125299,47.7000359 L4.41125299,47.7000359 L4.41125299,18.4937003 L4.17184864,18.6253161 C2.81238972,19.3704027 1.10641288,18.8772852 0.354298939,17.5218194 C-0.400575659,16.1613848 0.0903799385,14.446736 1.45094312,13.6919328 L1.45094312,13.6919328 Z M48.5817971,49.4666906 L4.41125299,49.4666906 C3.92338933,49.4666906 3.52784211,49.8622004 3.52784211,50.3500179 C3.52784211,50.8378355 3.92338933,51.2333453 4.41125299,51.2333453 L4.41125299,51.2333453 L48.5817971,51.2333453 C49.0696608,51.2333453 49.465208,50.8378355 49.465208,50.3500179 C49.465208,49.8622004 49.0696608,49.4666906 48.5817971,49.4666906 L48.5817971,49.4666906 Z M26.496525,6.30996613 L6.17807475,17.5185069 L6.17807475,47.7000359 L46.8149753,47.7000359 L46.8149753,17.5185069 L26.496525,6.30996613 Z M26.496525,25.9419165 C29.8358967,25.9419165 32.5570326,28.5885939 32.6763229,31.8985263 L32.6804012,32.125208 L32.9785783,32.2680224 C33.2727075,32.4186935 33.5543982,32.5927642 33.8209951,32.7886973 C36.5729304,34.8110752 37.1641531,38.6812636 35.1414735,41.4329387 C33.1189043,44.1846139 29.2483499,44.7757807 26.4964146,42.7534027 C26.1410626,43.0146468 25.7586561,43.2370244 25.3559312,43.416892 C22.2376012,44.8094575 18.5806114,43.4105983 17.1879141,40.2924527 C15.7953273,37.1744176 17.1942085,33.5177736 20.3126489,32.125208 C20.3126489,28.7102645 23.0812586,25.9419165 26.496525,25.9419165 Z M25.9897785,27.7257961 C23.5663616,28.0055901 21.8286924,30.1966836 22.1085128,32.6198713 C22.1551127,33.0375747 21.9009112,33.4303242 21.5007261,33.5588483 C20.8616887,33.7622344 20.2774229,34.1083883 19.792099,34.5711414 C18.0267128,36.2545425 17.9602361,39.0502736 19.6437964,40.8154929 C21.3273567,42.5807122 24.1232417,42.6471826 25.8887384,40.9637815 C26.2295141,40.6407045 26.763536,40.6407045 27.1043117,40.9637815 C27.8638163,41.6887645 28.8558349,42.1159446 29.8990314,42.172741 L30.1405949,42.1792399 L30.3525729,42.1740415 C32.1811024,42.0854971 33.7755158,40.8735962 34.341545,39.1172961 C35.089794,36.7955806 33.8141487,34.3070266 31.4921032,33.5588483 C31.091918,33.4303242 30.8377165,33.0375747 30.8843165,32.6198713 C30.9231865,32.2833236 30.9231865,31.943353 30.8843165,31.6066949 C30.6044961,29.1835071 28.4131954,27.4460022 25.9897785,27.7257961 Z M13.90792,23.6293655 C16.2604431,23.6293655 18.1041217,26.0540991 18.1041217,29.1501615 C18.1041217,32.2462239 16.2604431,34.6709574 13.90792,34.6709574 C11.5553968,34.6709574 9.71171828,32.2418072 9.71171828,29.1501615 C9.71171828,26.0585157 11.5553968,23.6293655 13.90792,23.6293655 Z M39.0851301,23.6293655 C41.4376533,23.6293655 43.2813318,26.0540991 43.2813318,29.1501615 C43.2813318,32.2462239 41.4376533,34.6709574 39.0851301,34.6709574 C36.7326069,34.6709574 34.8889284,32.2418072 34.8889284,29.1501615 C34.8889284,26.0585157 36.7326069,23.6293655 39.0851301,23.6293655 Z M13.90792,25.3960202 C12.5916378,25.3960202 11.47854,27.1185086 11.47854,29.1501615 C11.47854,31.1818144 12.5916378,32.9043027 13.90792,32.9043027 C15.2242022,32.9043027 16.3372999,31.1818144 16.3372999,29.1501615 C16.3372999,27.1185086 15.2242022,25.3960202 13.90792,25.3960202 Z M39.0851301,25.3960202 C37.7688479,25.3960202 36.6557502,27.1185086 36.6557502,29.1501615 C36.6557502,31.1818144 37.7688479,32.9043027 39.0851301,32.9043027 C40.4014123,32.9043027 41.51451,31.1818144 41.51451,29.1501615 C41.51451,27.1185086 40.4014123,25.3960202 39.0851301,25.3960202 Z M21.1960597,15.0169238 C23.5485829,15.0169238 25.3922614,17.4416574 25.3922614,20.5377198 C25.3922614,23.6337822 23.5485829,26.0585157 21.1960597,26.0585157 C18.8435366,26.0585157 16.9998581,23.6337822 16.9998581,20.5377198 C16.9998581,17.4416574 18.8435366,15.0169238 21.1960597,15.0169238 Z M31.7969903,15.0169238 C34.1495135,15.0169238 35.993192,17.4416574 35.993192,20.5377198 C35.993192,23.6337822 34.1495135,26.0585157 31.7969903,26.0585157 C29.4444672,26.0585157 27.6007886,23.6337822 27.6007886,20.5377198 C27.6007886,17.4416574 29.4444672,15.0169238 31.7969903,15.0169238 Z M21.1960597,16.7835785 C19.8797775,16.7835785 18.7666798,18.5025336 18.7666798,20.5377198 C18.7666798,22.572906 19.8797775,24.291861 21.1960597,24.291861 C22.512342,24.291861 23.6254397,22.572906 23.6254397,20.5377198 C23.6254397,18.5025336 22.512342,16.7835785 21.1960597,16.7835785 Z M31.7969903,16.7835785 C30.4807081,16.7835785 29.3676104,18.5025336 29.3676104,20.5377198 C29.3676104,22.572906 30.4807081,24.291861 31.7969903,24.291861 C33.1132725,24.291861 34.2263703,22.572906 34.2263703,20.5377198 C34.2263703,18.5025336 33.1132725,16.7835785 31.7969903,16.7835785 Z M26.496525,1.89332937 L2.30431804,15.2395223 C1.96906361,15.4235857 1.76101953,15.7758125 1.76101953,16.1581828 C1.76101953,16.3362837 1.80585345,16.5115137 1.89209643,16.6673106 C2.17268981,17.1745613 2.81128546,17.3582934 3.31847373,17.0777266 L3.31847373,17.0777266 L26.0698376,4.52652821 C26.335413,4.38000628 26.6576371,4.38000628 26.9232125,4.52652821 L26.9232125,4.52652821 L49.6745764,17.0777266 C49.999009,17.2611274 50.397096,17.2553858 50.7161178,17.06271 C51.038894,16.8765488 51.2362259,16.5307261 51.2320954,16.1581828 C51.2320954,15.7760333 51.0243178,15.4240273 50.6896155,15.2395223 L50.6896155,15.2395223 L26.496525,1.89332937 Z"></path>
                        </g>
                    </g>
                </g>
            </g>
        </g>
    </g>
</svg>