<?xml version="1.0" encoding="UTF-8"?>
<svg width="230px" height="262px" viewBox="0 0 230 262" version="1.1" xmlns="http://www.w3.org/2000/svg" xmlns:xlink="http://www.w3.org/1999/xlink">
    <!-- Generator: Sketch 58 (84663) - https://sketch.com -->
    <title>Mask</title>
    <desc>Created with Sketch.</desc>
    <defs>
        <path d="M24.8648649,4.54747351e-13 L24.8648649,8.15733605 L24.8648649,16.3582942 L213.589189,16.3582942 L213.589189,237.195266 L230,237.195266 L230,4.54747351e-13 L24.8648649,4.54747351e-13 Z M1.13686838e-13,32.556213 L1.13686838e-13,147.289031 L1.13686838e-13,262 L197.364865,262 L197.364865,32.556213 L1.13686838e-13,32.556213 Z M17.0945946,48.8343195 L181.047297,48.8343195 L181.047297,147.278107 L181.047297,245.721893 L17.0945946,245.721893 L17.0945946,48.8343195 Z M41.1824324,90.3155858 L41.1824324,98.4546391 L41.1824324,106.571988 L156.182432,106.571988 L156.182432,90.3155858 L41.1824324,90.3155858 Z M41.1824324,139.149905 L41.1824324,147.288959 L41.1824324,155.406308 L156.182432,155.406308 L156.182432,139.149905 L41.1824324,139.149905 Z M41.1824324,187.984225 L41.1824324,196.123278 L41.1824324,204.240627 L90.1351351,204.240627 L90.1351351,187.984225 L41.1824324,187.984225 Z" id="path-1"></path>
    </defs>
    <g id="Symbols" stroke="none" stroke-width="1" fill="none" fill-rule="evenodd">
        <g id="beauty-saloon-copy" transform="translate(-72.000000, -45.000000)">
            <g id="Color/White" transform="translate(72.000000, 45.000000)">
                <mask id="mask-2" fill="white">
                    <use xlink:href="#path-1"></use>
                </mask>
                <use id="Mask" fill="#1F1410" xlink:href="#path-1"></use>
            </g>
        </g>
    </g>
</svg>