<svg id="Capa_1" enable-background="new 0 0 448 448" height="512" viewBox="0 0 448 448" width="512" xmlns="http://www.w3.org/2000/svg"><path d="m407.149 116.425h.006l-35.675-71.354c11.637-6.346 15.927-20.923 9.581-32.561-4.203-7.708-12.28-12.506-21.061-12.51h-272c-13.255.005-23.995 10.755-23.99 24.01.004 8.78 4.802 16.858 12.51 21.061l-35.675 71.351c-.556 1.111-.845 2.336-.845 3.578v320c0 4.418 3.581 8 8 8 .527 0 1.053-.052 1.569-.155l38.431-7.687 38.363 7.673.055.011h.013c.059.011.118.015.177.026.2.035.393.069.595.089.266.026.532.04.8.04h271.997c4.418 0 8-3.582 8-8v-319.997c0-1.242-.292-2.466-.851-3.575zm-311.149-42.536 24 48v290.216l-24-38.4zm36.944 38.111-32-64h254.112l32 64zm235.056-88c-.005 4.416-3.584 7.995-8 8h-249.376c1.835-5.176 1.835-10.824 0-16h249.376c4.416.005 7.995 3.584 8 8zm-280-8c4.418 0 8 3.582 8 8s-3.582 8-8 8-8-3.582-8-8c.005-4.416 3.584-7.995 8-8zm-8 57.889v299.816l-24 38.4v-290.216zm8 350.111c-.527 0-1.052.052-1.569.155l-21.821 4.365 23.39-37.42 23.39 37.425-21.821-4.365c-.516-.105-1.042-.158-1.569-.16zm304 8h-256v-304h256z"/><path d="m264 352c53.019 0 96-42.981 96-96s-42.981-96-96-96-96 42.981-96 96c.06 52.995 43.006 95.94 96 96zm0-176c44.183 0 80 35.817 80 80s-35.817 80-80 80-80-35.817-80-80c.05-44.162 35.838-79.95 80-80z"/><path d="m226.585 277.16c-5.982 11.833-1.239 26.275 10.594 32.258 3.355 1.696 7.062 2.581 10.822 2.582h.383 31.616c13.255.006 24.005-10.735 24.01-23.99.004-10.578-6.917-19.912-17.041-22.979-3.842-12.686-17.241-19.855-29.927-16.012-7.678 2.326-13.687 8.334-16.012 16.012-6.276 1.888-11.5 6.274-14.445 12.129zm14.277 7.225c1.361-2.694 4.127-4.388 7.145-4.376 4.416-.004 7.993-3.584 7.993-8v-.069c.017-4.418 3.612-7.987 8.03-7.97s7.987 3.612 7.97 8.03c0 4.418 3.582 8 8 8s8 3.582 8 8-3.582 8-8 8h-31.69-.16c-1.306.029-2.6-.268-3.762-.865-3.942-1.995-5.52-6.807-3.526-10.749z"/><path d="m264 240c11.046 0 20-8.954 20-20s-8.954-20-20-20-20 8.954-20 20c.013 11.04 8.96 19.987 20 20zm0-24c2.209 0 4 1.791 4 4s-1.791 4-4 4-4-1.791-4-4 1.791-4 4-4z"/><path d="m240 244c0-11.046-8.954-20-20-20s-20 8.954-20 20 8.954 20 20 20c11.041-.013 19.988-8.96 20-20zm-24 0c0-2.209 1.791-4 4-4s4 1.791 4 4-1.791 4-4 4-4-1.791-4-4z"/><path d="m308 264c11.046 0 20-8.954 20-20s-8.954-20-20-20-20 8.954-20 20c.013 11.04 8.96 19.987 20 20zm0-24c2.209 0 4 1.791 4 4s-1.791 4-4 4-4-1.791-4-4 1.791-4 4-4z"/><path d="m152 368h72v16h-72z"/><path d="m152 400h48v16h-48z"/><path d="m216 400h24v16h-24z"/><path d="m360 400h16v16h-16z"/><path d="m328 400h16v16h-16z"/></svg>