<?xml version="1.0" encoding="UTF-8"?>
<svg width="21px" height="21px" viewBox="0 0 21 21" version="1.1" xmlns="http://www.w3.org/2000/svg" xmlns:xlink="http://www.w3.org/1999/xlink">
    <!-- Generator: Sketch 58 (84663) - https://sketch.com -->
    <title>Shape</title>
    <desc>Created with Sketch.</desc>
    <g id="Page-1" stroke="none" stroke-width="1" fill="none" fill-rule="evenodd">
        <g id="Iniciar-tratamento" transform="translate(-323.000000, -352.000000)" fill="#FEC118" fill-rule="nonzero">
            <g id="clock" transform="translate(323.000000, 352.000000)">
                <path d="M10.5,0 C4.69959677,0 0,4.69959677 0,10.5 C0,16.3004032 4.69959677,21 10.5,21 C16.3004032,21 21,16.3004032 21,10.5 C21,4.69959677 16.3004032,0 10.5,0 Z M10.5,18.9677419 C5.82157258,18.9677419 2.03225806,15.1784274 2.03225806,10.5 C2.03225806,5.82157258 5.82157258,2.03225806 10.5,2.03225806 C15.1784274,2.03225806 18.9677419,5.82157258 18.9677419,10.5 C18.9677419,15.1784274 15.1784274,18.9677419 10.5,18.9677419 Z M13.1165323,14.5475806 L9.52197581,11.9352823 C9.39072581,11.8379032 9.31451613,11.6854839 9.31451613,11.5245968 L9.31451613,4.57258065 C9.31451613,4.29314516 9.54314516,4.06451613 9.82258065,4.06451613 L11.1774194,4.06451613 C11.4568548,4.06451613 11.6854839,4.29314516 11.6854839,4.57258065 L11.6854839,10.5719758 L14.5137097,12.6296371 C14.7423387,12.7947581 14.7889113,13.1122984 14.6237903,13.3409274 L13.8278226,14.4375 C13.6627016,14.6618952 13.3451613,14.7127016 13.1165323,14.5475806 Z" id="Shape"></path>
            </g>
        </g>
    </g>
</svg>