<?xml version="1.0" encoding="utf-8"?>
<svg width="64px" height="55px" viewBox="0 0 64 55" version="1.1" xmlns:xlink="http://www.w3.org/1999/xlink" xmlns="http://www.w3.org/2000/svg">
  <desc>Created with Lunacy</desc>
  <defs>
    <path d="M0 0L18.38 0L18.38 24.6678L0 24.6678L0 0Z" transform="translate(0.3818 0.071)" id="path_1" />
    <path d="M0 0L18.379 0L18.379 24.6678L0 24.6678L0 0Z" transform="translate(0.9223 0.071)" id="path_2" />
    <path d="M0 0L14.4809 0L14.4809 19.178L0 19.178L0 0Z" transform="translate(0.9641 0.4045)" id="path_3" />
    <clipPath id="mask_1">
      <use xlink:href="#path_1" />
    </clipPath>
    <clipPath id="mask_2">
      <use xlink:href="#path_2" />
    </clipPath>
    <clipPath id="mask_3">
      <use xlink:href="#path_3" />
    </clipPath>
  </defs>
  <g id="Group-14" opacity="0.244024366">
    <g id="Group-3" transform="translate(12 0)">
      <path d="M0 0L18.38 0L18.38 24.6678L0 24.6678L0 0Z" transform="translate(0.3818 0.071)" id="Clip-2" fill="none" stroke="none" />
      <g clip-path="url(#mask_1)">
        <path d="M18.38 12.334C18.38 19.135 14.257 24.668 9.19 24.668C4.122 24.668 0 19.135 0 12.334C0 5.533 4.123 0 9.19 0C14.257 0 18.38 5.533 18.38 12.334ZM15.38 12.334C15.38 7.275 12.545 3 9.19 3C5.834 3 3 7.275 3 12.334C3 17.393 5.834 21.668 9.19 21.668C12.546 21.668 15.38 17.393 15.38 12.334Z" transform="translate(0.3818 0.0708)" id="Fill-1" fill="#000000" fill-rule="evenodd" stroke="none" />
      </g>
    </g>
    <path d="M37.7329 9.715C37.8289 9.924 38.0089 10.166 38.1989 10.422C38.4159 10.719 38.6359 11.02 38.8209 11.342C42.4789 17.783 41.5689 25.231 36.7899 27.945C35.9249 28.44 35.0049 28.687 34.0589 28.687C31.8519 28.687 29.8179 27.346 27.6629 25.928C26.2559 25.004 24.8029 24.045 23.1509 23.317C22.9169 23.234 21.8319 23.1 20.3179 23.1C19.0439 23.1 18.2669 23.195 18.0769 23.258C16.3809 23.961 14.8539 24.902 13.3779 25.809C11.0559 27.24 9.05092 28.473 6.85992 28.473C5.79892 28.473 4.78592 28.17 3.84892 27.567C1.52592 26.074 0.162915 23.457 0.0139153 20.197C-0.129085 17.129 0.833915 13.82 2.72492 10.879C2.90592 10.598 3.11692 10.34 3.32892 10.086C3.50892 9.871 3.67892 9.666 3.75592 9.51C5.99292 4.912 11.5829 0 20.5689 0L20.9189 0.002C30.0429 0.131 35.6779 5.317 37.7329 9.715ZM34.0578 25.689C34.4898 25.689 34.8848 25.576 35.3078 25.338C38.6478 23.44 39.0518 17.826 36.2118 12.826C36.0868 12.608 35.9328 12.406 35.7868 12.207C35.5308 11.859 35.2388 11.463 35.0128 10.984C33.3278 7.371 28.6128 3.111 20.8758 3.002L20.5688 3C12.9678 3 8.29277 7.039 6.45377 10.82C6.21677 11.307 5.90477 11.68 5.63077 12.008C5.49677 12.166 5.36077 12.323 5.24677 12.5C3.69177 14.922 2.89577 17.608 3.00977 20.057C3.11477 22.317 3.98777 24.088 5.47077 25.041C5.92877 25.336 6.36977 25.473 6.85977 25.473C8.20177 25.473 9.87077 24.442 11.8058 23.254C13.3078 22.329 15.0118 21.283 16.9538 20.475C17.5568 20.228 18.6868 20.1 20.3168 20.1C21.4288 20.1 23.4368 20.162 24.3628 20.572C26.2448 21.404 27.8728 22.477 29.3118 23.424C31.1578 24.639 32.7488 25.689 34.0578 25.689Z" transform="translate(10.63135 26.31287)" id="Fill-4" fill="#000000" fill-rule="evenodd" stroke="none" />
    <g id="Group-8" transform="translate(31 0)">
      <path d="M0 0L18.379 0L18.379 24.6678L0 24.6678L0 0Z" transform="translate(0.9223 0.071)" id="Clip-7" fill="none" stroke="none" />
      <g clip-path="url(#mask_2)">
        <path d="M18.379 12.334C18.379 19.135 14.256 24.668 9.189 24.668C4.122 24.668 0 19.135 0 12.334C0 5.533 4.123 0 9.189 0C14.257 0 18.379 5.533 18.379 12.334ZM15.379 12.334C15.379 7.275 12.543 3 9.189 3C5.834 3 3 7.275 3 12.334C3 17.393 5.834 21.668 9.189 21.668C12.545 21.668 15.379 17.393 15.379 12.334Z" transform="translate(0.9223 0.0708)" id="Fill-6" fill="#000000" fill-rule="evenodd" stroke="none" />
      </g>
    </g>
    <g id="Group-11" transform="translate(48 18)">
      <path d="M0 0L14.4809 0L14.4809 19.178L0 19.178L0 0Z" transform="translate(0.9641 0.4045)" id="Clip-10" fill="none" stroke="none" />
      <g clip-path="url(#mask_3)">
        <path d="M0 9.591C0 4.214 3.179 0 7.241 0C11.302 0 14.481 4.214 14.481 9.591C14.481 14.965 11.301 19.178 7.241 19.178C3.18 19.178 0 14.965 0 9.591ZM3 9.591C3 13.16 4.942 16.178 7.241 16.178C9.539 16.178 11.481 13.16 11.481 9.591C11.481 6.018 9.54 3 7.241 3C4.942 3 3 6.018 3 9.591Z" transform="translate(0.9641 0.4045)" id="Fill-9" fill="#000000" fill-rule="evenodd" stroke="none" />
      </g>
    </g>
    <path d="M7.241 0C11.301 0 14.482 4.214 14.482 9.591C14.482 14.965 11.301 19.178 7.241 19.178C3.181 19.178 0 14.965 0 9.591C0 4.214 3.181 0 7.241 0ZM3 9.591C3 13.16 4.942 16.178 7.241 16.178C9.54 16.178 11.482 13.16 11.482 9.591C11.482 6.018 9.54 3 7.241 3C4.942 3 3 6.018 3 9.591Z" transform="translate(0 18.40448)" id="Fill-12" fill="#000000" fill-rule="evenodd" stroke="none" />
  </g>
</svg>