<?xml version="1.0" encoding="UTF-8"?>
<svg width="236px" height="270px" viewBox="0 0 236 270" version="1.1" xmlns="http://www.w3.org/2000/svg" xmlns:xlink="http://www.w3.org/1999/xlink">
    <!-- Generator: Sketch 58 (84663) - https://sketch.com -->
    <title>calendar-alt</title>
    <desc>Created with Sketch.</desc>
    <g id="Symbols" stroke="none" stroke-width="1" fill="none" fill-rule="evenodd">
        <g id="calendar-alt" fill="#FEC118" fill-rule="nonzero">
            <g id="Shape">
                <path d="M77.9642857,151.875 L56.8928571,151.875 C53.4160714,151.875 50.5714286,149.027344 50.5714286,145.546875 L50.5714286,124.453125 C50.5714286,120.972656 53.4160714,118.125 56.8928571,118.125 L77.9642857,118.125 C81.4410714,118.125 84.2857143,120.972656 84.2857143,124.453125 L84.2857143,145.546875 C84.2857143,149.027344 81.4410714,151.875 77.9642857,151.875 Z M134.857143,145.546875 L134.857143,124.453125 C134.857143,120.972656 132.0125,118.125 128.535714,118.125 L107.464286,118.125 C103.9875,118.125 101.142857,120.972656 101.142857,124.453125 L101.142857,145.546875 C101.142857,149.027344 103.9875,151.875 107.464286,151.875 L128.535714,151.875 C132.0125,151.875 134.857143,149.027344 134.857143,145.546875 Z M185.428571,145.546875 L185.428571,124.453125 C185.428571,120.972656 182.583929,118.125 179.107143,118.125 L158.035714,118.125 C154.558929,118.125 151.714286,120.972656 151.714286,124.453125 L151.714286,145.546875 C151.714286,149.027344 154.558929,151.875 158.035714,151.875 L179.107143,151.875 C182.583929,151.875 185.428571,149.027344 185.428571,145.546875 Z M134.857143,196.171875 L134.857143,175.078125 C134.857143,171.597656 132.0125,168.75 128.535714,168.75 L107.464286,168.75 C103.9875,168.75 101.142857,171.597656 101.142857,175.078125 L101.142857,196.171875 C101.142857,199.652344 103.9875,202.5 107.464286,202.5 L128.535714,202.5 C132.0125,202.5 134.857143,199.652344 134.857143,196.171875 Z M84.2857143,196.171875 L84.2857143,175.078125 C84.2857143,171.597656 81.4410714,168.75 77.9642857,168.75 L56.8928571,168.75 C53.4160714,168.75 50.5714286,171.597656 50.5714286,175.078125 L50.5714286,196.171875 C50.5714286,199.652344 53.4160714,202.5 56.8928571,202.5 L77.9642857,202.5 C81.4410714,202.5 84.2857143,199.652344 84.2857143,196.171875 Z M185.428571,196.171875 L185.428571,175.078125 C185.428571,171.597656 182.583929,168.75 179.107143,168.75 L158.035714,168.75 C154.558929,168.75 151.714286,171.597656 151.714286,175.078125 L151.714286,196.171875 C151.714286,199.652344 154.558929,202.5 158.035714,202.5 L179.107143,202.5 C182.583929,202.5 185.428571,199.652344 185.428571,196.171875 Z M236,59.0625 L236,244.6875 C236,258.662109 224.674107,270 210.714286,270 L25.2857143,270 C11.3258929,270 0,258.662109 0,244.6875 L0,59.0625 C0,45.0878906 11.3258929,33.75 25.2857143,33.75 L50.5714286,33.75 L50.5714286,6.328125 C50.5714286,2.84765625 53.4160714,0 56.8928571,0 L77.9642857,0 C81.4410714,0 84.2857143,2.84765625 84.2857143,6.328125 L84.2857143,33.75 L151.714286,33.75 L151.714286,6.328125 C151.714286,2.84765625 154.558929,0 158.035714,0 L179.107143,0 C182.583929,0 185.428571,2.84765625 185.428571,6.328125 L185.428571,33.75 L210.714286,33.75 C224.674107,33.75 236,45.0878906 236,59.0625 Z M210.714286,241.523438 L210.714286,84.375 L25.2857143,84.375 L25.2857143,241.523438 C25.2857143,243.263672 26.7080357,244.6875 28.4464286,244.6875 L207.553571,244.6875 C209.291964,244.6875 210.714286,243.263672 210.714286,241.523438 Z"></path>
            </g>
        </g>
    </g>
</svg>