<?xml version="1.0" encoding="UTF-8"?>
<svg width="121px" height="122px" viewBox="0 0 121 122" version="1.1" xmlns="http://www.w3.org/2000/svg" xmlns:xlink="http://www.w3.org/1999/xlink">
    <!-- Generator: Sketch 58 (84663) - https://sketch.com -->
    <title>Mask</title>
    <desc>Created with Sketch.</desc>
    <defs>
        <path d="M60.5,-7.10542736e-15 C93.9132274,-7.10542736e-15 121,27.3106303 121,61 C121,94.6893697 93.9132274,122 60.5,122 C27.0867726,122 0,94.6893697 0,61 C0,27.3106303 27.0867726,-7.10542736e-15 60.5,-7.10542736e-15 Z M60.5,4.06666667 C29.3143211,4.06666667 4.03333333,29.5565882 4.03333333,61 C4.03333333,92.4434118 29.3143211,117.933333 60.5,117.933333 C91.6856789,117.933333 116.966667,92.4434118 116.966667,61 C116.966667,29.5565882 91.6856789,4.06666667 60.5,4.06666667 Z M66.7100256,39.16885 C74.6824242,46.3228908 75.682005,58.4518145 68.9882654,66.8130329 L86.3428018,84.1161283 C86.7676186,84.5431651 87.004187,85.1220736 86.9999439,85.7242258 C86.9957007,86.326378 86.7509975,86.9018994 86.3202048,87.3229145 C85.8983225,87.752837 85.3221051,87.9965717 84.7195799,87.9999641 C84.1170547,88.0033565 83.5381259,87.7661256 83.1114233,87.3409809 L65.7342899,70.0446604 C57.3260668,76.6816852 45.1961017,75.6067028 38.0877334,67.5945659 C30.9793651,59.582429 31.3637689,47.4185017 38.9638647,39.870603 C46.5639604,32.3227043 58.7376271,32.0148092 66.7100256,39.16885 Z M53.0799404,38.3494184 C44.3439351,38.3494184 37.2620036,45.4269461 37.2620036,54.1575191 C37.2620036,62.8880921 44.3439351,69.9656199 53.0799404,69.9656199 C61.8159457,69.9656199 68.8978772,62.8880921 68.8978772,54.1575191 C68.8978772,45.4269461 61.8159457,38.3494184 53.0799404,38.3494184 Z M53.0799404,45.1243187 C54.3279412,45.1243187 55.3396457,46.1353941 55.3396457,47.3826188 L55.3396457,51.899219 L59.8590562,51.899219 C61.1070569,51.899219 62.1187614,52.9102944 62.1187614,54.1575191 C62.1187614,55.4047438 61.1070569,56.4158192 59.8590562,56.4158192 L55.3396457,56.4158192 L55.3396457,60.9324194 C55.3396457,62.1796441 54.3279412,63.1907195 53.0799404,63.1907195 C51.8319396,63.1907195 50.8202351,62.1796441 50.8202351,60.9324194 L50.8202351,56.4158192 L46.3008246,56.4158192 C45.0528239,56.4158192 44.0411194,55.4047438 44.0411194,54.1575191 C44.0411194,52.9102944 45.0528239,51.899219 46.3008246,51.899219 L50.8202351,51.899219 L50.8202351,47.3826188 C50.8202351,46.1353941 51.8319396,45.1243187 53.0799404,45.1243187 Z" id="path-1"></path>
    </defs>
    <g id="Symbols" stroke="none" stroke-width="1" fill="none" fill-rule="evenodd">
        <g id="Icons/View">
            <g id="Color/White">
                <mask id="mask-2" fill="white">
                    <use xlink:href="#path-1"></use>
                </mask>
                <use id="Mask" fill="#D3D3D3" fill-rule="nonzero" xlink:href="#path-1"></use>
            </g>
        </g>
    </g>
</svg>