<?xml version="1.0" encoding="UTF-8"?>
<svg width="150px" height="149px" viewBox="0 0 150 149" version="1.1" xmlns="http://www.w3.org/2000/svg" xmlns:xlink="http://www.w3.org/1999/xlink">
    <!-- Generator: Sketch 58 (84663) - https://sketch.com -->
    <title>loupe</title>
    <desc>Created with Sketch.</desc>
    <g id="Telas" stroke="none" stroke-width="1" fill="none" fill-rule="evenodd" opacity="0.5">
        <g id="Busca-por-serviço" transform="translate(-112.000000, -215.000000)" fill="#FFFFFF" fill-rule="nonzero">
            <g id="loupe" transform="translate(111.500000, 215.000000)">
                <path d="M92.5,56 C90.844,56 89.5,57.344 89.5,59 C89.5,60.656 90.844,62 92.5,62 C94.156,62 95.5,60.656 95.5,59 C95.5,57.344 94.156,56 92.5,56 Z" id="Path"></path>
                <path d="M147.066699,129.129162 L107.96123,90.2843965 C114.331836,80.7524707 117.6875,69.714248 117.6875,58.203125 C117.6875,26.1099219 91.4023437,0 59.09375,0 C26.7851562,0 0.5,26.1099219 0.5,58.203125 C0.5,90.2963281 26.7851562,116.40625 59.09375,116.40625 C70.6824219,116.40625 81.7947266,113.072666 91.390332,106.745113 L102.199414,117.482135 C102.200879,117.48359 102.202344,117.485045 102.204102,117.486791 L130.495508,145.589588 C132.709766,147.788793 135.652051,149 138.78125,149 C141.910449,149 144.852734,147.788793 147.06582,145.590461 C149.280371,143.39242 150.5,140.469459 150.5,137.359375 C150.5,134.249291 149.280371,131.32633 147.066699,129.129162 Z M90.0125,100.611959 C90.0125,100.61225 90.012207,100.61225 90.0119141,100.612541 C80.9688477,107.137111 70.277832,110.585938 59.09375,110.585938 C30.0160156,110.585938 6.359375,87.0870078 6.359375,58.203125 C6.359375,29.3192422 30.0160156,5.8203125 59.09375,5.8203125 C88.1714844,5.8203125 111.828125,29.3192422 111.828125,58.203125 C111.828125,69.3126465 108.356152,79.9323887 101.7875,88.915459 C98.5012695,93.4125234 94.5397461,97.3479277 90.0125,100.611959 Z M96.1589844,103.250307 C99.1912109,100.786277 101.962988,98.0329785 104.443262,95.0212578 L112.755078,103.277662 C110.227344,106.241074 107.454102,108.996119 104.470801,111.506711 L96.1589844,103.250307 Z M142.923535,141.474045 C141.816113,142.574084 140.345117,143.179687 138.78125,143.179687 C137.217383,143.179687 135.746387,142.574084 134.638965,141.474045 L108.624805,115.633312 C111.591699,113.104096 114.363184,110.351379 116.909082,107.404264 L142.924121,133.245869 C144.030957,134.344162 144.640625,135.80477 144.640625,137.359375 C144.640625,138.91398 144.030957,140.374588 142.923535,141.474045 Z" id="Shape"></path>
                <path d="M59.5,12 C33.5839063,12 12.5,32.8596094 12.5,58.5 C12.5,84.1403906 33.5839063,105 59.5,105 C85.4160938,105 106.5,84.1403906 106.5,58.5 C106.5,32.8596094 85.4160938,12 59.5,12 Z M59.5,99.1875 C36.823675,99.1875 18.375,80.9350875 18.375,58.5 C18.375,36.0649125 36.823675,17.8125 59.5,17.8125 C82.176325,17.8125 100.625,36.0649125 100.625,58.5 C100.625,80.9350875 82.176325,99.1875 59.5,99.1875 Z" id="Shape"></path>
                <path d="M92.3040488,45.10271 C89.7782743,38.6754795 85.3805345,33.180272 79.5857138,29.2115747 C73.653033,25.1479545 66.6843475,23 59.4331953,23 C57.8134849,23 56.5,24.2841843 56.5,25.867763 C56.5,27.4513418 57.8134849,28.7355261 59.4331953,28.7355261 C71.4883348,28.7355261 82.4972035,36.1395167 86.8280664,47.1600432 C87.2762587,48.3002658 88.3876464,49 89.5667909,49 C89.9164278,49 90.2722244,48.9383431 90.6180481,48.8084334 C92.1301103,48.2403296 92.8851148,46.5813287 92.3040488,45.10271 Z" id="Path"></path>
            </g>
        </g>
    </g>
</svg>