<?xml version="1.0" encoding="UTF-8"?>
<svg width="32px" height="24px" viewBox="0 0 32 24" version="1.1" xmlns="http://www.w3.org/2000/svg" xmlns:xlink="http://www.w3.org/1999/xlink">
    <!-- Generator: Sketch 58 (84663) - https://sketch.com -->
    <title>Color/White</title>
    <desc>Created with Sketch.</desc>
    <defs>
        <path d="M0,-1.0658141e-14 L0.5,2.2 L4.5,2.2 L8.8,17.8 L27.6,17.8 L32,2.2 L29.4,2.2 L25.6,15.3 L10.7,15.3 L6.3,-1.0658141e-14 L0,-1.0658141e-14 Z M13.9,19.5 C12.7,19.5 11.7,20.5 11.7,21.7 C11.7,22.9 12.7,23.9 13.9,23.9 C15.1,23.9 16.1,22.9 16.1,21.7 C16.1,20.5 15.1,19.5 13.9,19.5 L13.9,19.5 Z M22.3,19.5 C21.1,19.5 20.1,20.5 20.1,21.7 C20.1,22.9 21.1,23.9 22.3,23.9 C23.5,23.9 24.5,22.9 24.5,21.7 C24.5,20.5 23.5,19.5 22.3,19.5 Z" id="path-1"></path>
    </defs>
    <g id="Symbols" stroke="none" stroke-width="1" fill="none" fill-rule="evenodd">
        <g id="icon-basket">
            <g id="Color/White">
                <mask id="mask-2" fill="white">
                    <use xlink:href="#path-1"></use>
                </mask>
                <use id="Mask" fill="#5A5A5A" fill-rule="nonzero" xlink:href="#path-1"></use>
                <g id="Color/Yellow" mask="url(#mask-2)" fill="#EBB900">
                    <g transform="translate(0.000000, -1.000000)" id="Rectangle">
                        <rect x="0" y="0" width="33" height="26"></rect>
                    </g>
                </g>
            </g>
        </g>
    </g>
</svg>