<?xml version="1.0" encoding="utf-8"?>
<svg width="15px" height="17px" viewBox="0 0 15 17" version="1.1" xmlns:xlink="http://www.w3.org/1999/xlink" xmlns="http://www.w3.org/2000/svg">
  <desc>Created with Lunacy</desc>
  <path d="M15 3.45313C15 3.01302 14.6402 2.65625 14.1964 2.65625L11.705 2.65625L10.566 0.773766C10.2756 0.293719 9.75243 -5.38611e-06 9.1879 0L5.81213 0C5.2476 -5.38611e-06 4.72446 0.293719 4.43401 0.773766L3.29501 2.65625L0.803571 2.65625C0.359766 2.65625 0 3.01302 0 3.45313L0 3.85156C0 4.0716 0.1799 4.25 0.401786 4.25L1.07143 4.25L1.07143 15.4063C1.07143 16.2865 1.79096 17 2.67857 17L12.3214 17C13.209 17 13.9286 16.2865 13.9286 15.4063L13.9286 4.25L14.5982 4.25C14.8201 4.25 15 4.0716 15 3.85156L15 3.45313ZM5.16919 2.65625L9.83067 2.65625L9.24634 1.69047C9.21004 1.63046 9.14464 1.59375 9.07408 1.59375L5.92582 1.59375C5.85525 1.59375 5.78986 1.63046 5.75355 1.69047L5.16919 2.65625ZM2.67847 4.25L12.3213 4.25L12.3213 15.207C12.3213 15.3171 12.2314 15.4063 12.1204 15.4063L2.87936 15.4063C2.76841 15.4063 2.67847 15.3171 2.67847 15.207L2.67847 4.25ZM6.42868 6.24219L6.42868 13.4141C6.42868 13.6341 6.24878 13.8125 6.02689 13.8125L5.22332 13.8125C5.00143 13.8125 4.82153 13.6341 4.82153 13.4141L4.82153 6.24219C4.82153 6.02215 5.00143 5.84375 5.22332 5.84375L6.02689 5.84375C6.24878 5.84375 6.42868 6.02215 6.42868 6.24219ZM9.77689 5.84375L8.97332 5.84375C8.75143 5.84375 8.57153 6.02215 8.57153 6.24219L8.57153 13.4141C8.57153 13.6341 8.75143 13.8125 8.97332 13.8125L9.77689 13.8125C9.99878 13.8125 10.1787 13.6341 10.1787 13.4141L10.1787 6.24219C10.1787 6.02215 9.99878 5.84375 9.77689 5.84375Z" transform="matrix(-1 0 0 1 15 0)" id="Shape" fill="#D95C5C" fill-rule="evenodd" stroke="none" />
</svg>