<svg xmlns="http://www.w3.org/2000/svg" xmlns:xlink="http://www.w3.org/1999/xlink" width="72.367" height="62.776" viewBox="0 0 72.367 62.776"><defs><clipPath id="a"><path d="M0,0H20.965V28.192H0Z" transform="translate(0.435 0.081)" fill="#fec118"/></clipPath><clipPath id="b"><path d="M0,0H20.964V28.192H0Z" transform="translate(0.052 0.081)" fill="#fec118"/></clipPath><clipPath id="c"><path d="M0,0H16.517V21.918H0Z" transform="translate(0.1 0.462)" fill="#fec118"/></clipPath></defs><g transform="translate(0 -0.143)"><g transform="translate(13.688 0.062)"><path d="M0,0H20.965V28.192H0Z" transform="translate(0.435 0.081)" fill="none"/><g clip-path="url(#a)"><path d="M10.482,28.192C4.7,28.192,0,21.868,0,14.1S4.7,0,10.482,0,20.965,6.323,20.965,14.1,16.262,28.192,10.482,28.192Zm0-24.763c-3.827,0-7.06,4.885-7.06,10.667s3.233,10.668,7.06,10.668,7.06-4.885,7.06-10.668S14.309,3.429,10.482,3.429Z" transform="translate(0.435 0.081)" fill="#fec118"/></g></g><path d="M38.848,32.785c-2.513,0-4.831-1.528-7.284-3.146l-.012-.008-.064-.042a34.94,34.94,0,0,0-5.082-2.941,14.963,14.963,0,0,0-3.232-.248,12.023,12.023,0,0,0-2.556.181,38.062,38.062,0,0,0-5.32,2.891l-.039.024c-2.646,1.634-4.931,3.045-7.435,3.045A6.256,6.256,0,0,1,4.39,31.505C1.739,29.8.185,26.806.016,23.082A18.469,18.469,0,0,1,3.108,12.434a9.223,9.223,0,0,1,.689-.906,4.129,4.129,0,0,0,.487-.659C6.835,5.614,13.213,0,23.461,0l.4,0c10.4.147,16.833,6.071,19.178,11.1a5.162,5.162,0,0,0,.529.8l0,0a11.5,11.5,0,0,1,.709,1.052c4.172,7.361,3.133,15.873-2.317,18.975A6.2,6.2,0,0,1,38.848,32.785ZM23.174,22.972a14.763,14.763,0,0,1,4.615.539,38.594,38.594,0,0,1,5.632,3.251l.013.009.014.009c2.1,1.384,3.91,2.579,5.4,2.579a2.818,2.818,0,0,0,1.426-.4c3.809-2.169,4.272-8.583,1.031-14.3a6.634,6.634,0,0,0-.419-.617l-.066-.09a8.323,8.323,0,0,1-.883-1.4c-1.922-4.131-7.3-9-16.125-9.122l-.35,0c-8.672,0-14,4.617-16.1,8.937a6.51,6.51,0,0,1-.939,1.357l-.046.054a4.883,4.883,0,0,0-.391.508,15.045,15.045,0,0,0-2.552,8.636,6.846,6.846,0,0,0,2.807,5.7,2.815,2.815,0,0,0,1.584.494c1.518,0,3.4-1.159,5.584-2.5l.058-.035A41.455,41.455,0,0,1,19.338,23.4,11.578,11.578,0,0,1,23.174,22.972Z" transform="translate(12.127 30.134)" fill="#fec118"/><g transform="translate(36.359 0.062)"><path d="M0,0H20.964V28.192H0Z" transform="translate(0.052 0.081)" fill="none"/><g clip-path="url(#b)"><path d="M10.481,28.192C4.7,28.192,0,21.868,0,14.1S4.7,0,10.481,0,20.964,6.323,20.964,14.1,16.261,28.192,10.481,28.192Zm0-24.763c-3.827,0-7.06,4.885-7.06,10.667s3.233,10.668,7.06,10.668,7.061-4.885,7.061-10.668S14.309,3.429,10.481,3.429Z" transform="translate(0.052 0.081)" fill="#fec118"/></g></g><g transform="translate(55.75 20.633)"><path d="M0,0H16.517V21.918H0Z" transform="translate(0.1 0.462)" fill="none"/><g clip-path="url(#c)"><path d="M8.259,21.918C3.628,21.918,0,17.1,0,10.961S3.628,0,8.259,0s8.258,4.815,8.258,10.961S12.89,21.918,8.259,21.918Zm0-18.489c-2.622,0-4.838,3.449-4.838,7.532s2.215,7.528,4.838,7.528S13.1,15.041,13.1,10.961,10.881,3.429,8.259,3.429Z" transform="translate(0.1 0.462)" fill="#fec118"/></g></g><path d="M8.259,21.918C3.628,21.918,0,17.1,0,10.961S3.628,0,8.259,0s8.259,4.815,8.259,10.961S12.891,21.918,8.259,21.918Zm0-18.489c-2.622,0-4.838,3.449-4.838,7.532s2.215,7.528,4.838,7.528S13.1,15.041,13.1,10.961,10.882,3.429,8.259,3.429Z" transform="translate(0 21.095)" fill="#fec118"/></g></svg>