<svg xmlns="http://www.w3.org/2000/svg" width="149.088" height="109" viewBox="0 0 149.088 109"><g transform="translate(-7 -74)"><path d="M184.989,169.577a12.918,12.918,0,1,0-12.918-12.918,12.918,12.918,0,0,0,12.918,12.918Zm0-21.05a8.132,8.132,0,1,1-8.132,8.132A8.132,8.132,0,0,1,184.989,148.526Z" transform="translate(-115.691 -48.878)" fill="#d3d3d3"/><path d="M388.821,307.863h-10.47v-10.47a2.393,2.393,0,0,0-4.786,0v10.47H363.393a2.393,2.393,0,1,0,0,4.786h10.171v10.171a2.393,2.393,0,0,0,4.786,0V312.65h10.47a2.393,2.393,0,0,0,0-4.786Z" transform="translate(-248.102 -154.889)" fill="#d3d3d3"/><path d="M146.1,133.569V88.276A14.371,14.371,0,0,0,131.667,74H21.285A14.242,14.242,0,0,0,7,88.276V160.4a14.356,14.356,0,0,0,14.285,14.41H108.3a28,28,0,0,0,47.785-19.8A28.376,28.376,0,0,0,146.1,133.569ZM21.285,78.786H131.667a9.58,9.58,0,0,1,9.65,9.49v42.053a27.845,27.845,0,0,0-13.2-3.3,28.447,28.447,0,0,0-3.129.174l-20.049-14.2a2.4,2.4,0,0,0-3.066.246l-27.02,26.554-31.4-15.3a2.323,2.323,0,0,0-2.214.081l-29.451,17.1V88.276a9.45,9.45,0,0,1,9.5-9.49Zm-9.5,81.616V147.225l30.75-17.856L71.249,143.4,44.163,170.026H21.285a9.565,9.565,0,0,1-9.5-9.624Zm39.205,9.624L103.8,118.1l14.924,10.56a27.991,27.991,0,0,0-14.255,41.367Zm77.088,8.16A23.184,23.184,0,1,1,151.264,155,23.184,23.184,0,0,1,128.08,178.185Z" transform="translate(0)" fill="#d3d3d3"/></g></svg>