<svg xmlns="http://www.w3.org/2000/svg" width="12" height="12.012" viewBox="0 0 12 12.012"><path d="M12,0H0V9H6V8.25H.75V.75h10.5V6H12ZM3,1.5H9v.375a2.448,2.448,0,0,0,.117.468.73.73,0,0,0,.258.328A1.05,1.05,0,0,0,10.219,3H10.5V5.25H9.75V3.7l-.234-.047a1.97,1.97,0,0,1-.7-.469,2.137,2.137,0,0,1-.468-.656L8.3,2.25H3.7l-.047.187a1.61,1.61,0,0,1-.4.7,1.786,1.786,0,0,1-.68.469L2.3,3.7a2.588,2.588,0,0,0-.047.8v.8l.187.047a1.616,1.616,0,0,1,.7.4,1.783,1.783,0,0,1,.468.679L3.7,6.7a5.556,5.556,0,0,0,1.172.047H6V7.5H3V7.125a2.517,2.517,0,0,0-.117-.469.737.737,0,0,0-.258-.328A1.051,1.051,0,0,0,1.781,6H1.5V3h.281a1.051,1.051,0,0,0,.844-.329.737.737,0,0,0,.258-.328A2.525,2.525,0,0,0,3,1.875ZM6.562,3.14a1.3,1.3,0,0,0-.468-.117,1.124,1.124,0,0,0-.422.023,1.87,1.87,0,0,0-.61.305,1.3,1.3,0,0,0-.421.539.466.466,0,0,0-.094.258V4.5a1.926,1.926,0,0,0,.07.586,1.067,1.067,0,0,0,.352.445A1.345,1.345,0,0,0,5.883,6a1.408,1.408,0,0,0,.984-.282,1.52,1.52,0,0,0,.586-.867A1.4,1.4,0,0,0,7.336,3.82,1.38,1.38,0,0,0,6.562,3.14ZM5.789,3.8a.871.871,0,0,0-.422.329.755.755,0,0,0-.117.562.9.9,0,0,0,.234.328.934.934,0,0,0,.328.235.817.817,0,0,0,.7-.235.7.7,0,0,0,.21-.656.655.655,0,0,0-.4-.516A.665.665,0,0,0,5.789,3.8Zm5.133,2.485a4.983,4.983,0,0,0-1.149-.258,3.378,3.378,0,0,0-1.195.07,3.01,3.01,0,0,0-1.055.352,1.646,1.646,0,0,0-.632.586l-.141.234v3.094a2.283,2.283,0,0,0,.117.586,1.183,1.183,0,0,0,.258.351,2.5,2.5,0,0,0,1.359.633,4.853,4.853,0,0,0,1.782,0,2.515,2.515,0,0,0,1.359-.633,1.2,1.2,0,0,0,.258-.351A2.327,2.327,0,0,0,12,10.359V7.265l-.141-.234A1.676,1.676,0,0,0,10.922,6.281ZM8.766,6.8a3.627,3.627,0,0,1,.773-.023,5.856,5.856,0,0,1,.773.07,3.28,3.28,0,0,1,.539.235.773.773,0,0,1,.305.234.274.274,0,0,1-.023.422,2.4,2.4,0,0,1-.68.375c-.187.031-.336.055-.445.07a5.365,5.365,0,0,1-.633.024,5.33,5.33,0,0,1-.633-.024c-.11-.015-.258-.039-.445-.07a1.994,1.994,0,0,1-.656-.375.28.28,0,0,1-.071-.375.942.942,0,0,1,.446-.328A4.2,4.2,0,0,1,8.766,6.8ZM7.781,8.718,7.5,8.578v.234a.7.7,0,0,0,.07.352.611.611,0,0,0,.258.211,2.219,2.219,0,0,0,.68.257,4.485,4.485,0,0,0,.867.071,4.492,4.492,0,0,0,.867-.071,2.238,2.238,0,0,0,.68-.257.617.617,0,0,0,.258-.211.709.709,0,0,0,.07-.352V8.578l-.281.14a4.418,4.418,0,0,1-1.2.258,3.8,3.8,0,0,1-1.289-.07A4.282,4.282,0,0,1,7.781,8.718ZM7.5,10.078l.281.14a4.282,4.282,0,0,0,.7.188,3.8,3.8,0,0,0,1.289.07,4.418,4.418,0,0,0,1.2-.258l.281-.14v.234a.709.709,0,0,1-.07.352.617.617,0,0,1-.258.211,2.265,2.265,0,0,1-.68.257,4.492,4.492,0,0,1-.867.071,4.485,4.485,0,0,1-.867-.071,2.245,2.245,0,0,1-.68-.257.611.611,0,0,1-.258-.211.7.7,0,0,1-.07-.352Z" fill="#49270a" fill-rule="evenodd"/></svg>