<svg xmlns="http://www.w3.org/2000/svg" width="11.982" height="11.978" viewBox="0 0 11.982 11.978"><path d="M10.132,1.678A5.624,5.624,0,0,0,7.788.271,5.593,5.593,0,0,0,5.116.084,5.944,5.944,0,0,0,1.741,1.795,6.087,6.087,0,0,0,.054,5.146,5.952,5.952,0,0,0,.335,7.912a6.181,6.181,0,0,0,1.5,2.391,6.255,6.255,0,0,0,2.672,1.476,5.739,5.739,0,0,0,3,0,6.046,6.046,0,0,0,2.672-1.523,5.725,5.725,0,0,0,1.593-2.7,5.953,5.953,0,0,0,0-3.14A5.856,5.856,0,0,0,10.132,1.678Zm-5.3-.8a5.749,5.749,0,0,0-1.735.75,4.529,4.529,0,0,0-.773.633,4.4,4.4,0,0,0-.633.773A5.628,5.628,0,0,0,.9,4.865,5.018,5.018,0,0,0,.8,6.787a5.307,5.307,0,0,0,2.953,3.937,4.993,4.993,0,0,0,2.273.516A4.667,4.667,0,0,0,8.3,10.678a4.793,4.793,0,0,0,1.969-1.641,5.458,5.458,0,0,0,.938-2.344,5.5,5.5,0,0,0-.516-3.047A4.954,4.954,0,0,0,9.076,1.725,5.322,5.322,0,0,0,6.709.787,4.733,4.733,0,0,0,4.834.881Zm-.75,2.508a1.494,1.494,0,0,0-.469.023h.047a1.475,1.475,0,0,0-.75.492,1.343,1.343,0,0,0-.281.867v.282h.75V4.724a.491.491,0,0,1,.047-.257,1.163,1.163,0,0,1,.14-.164.481.481,0,0,1,.164-.118,1.678,1.678,0,0,1,.211-.046.3.3,0,0,1,.211.023,1.066,1.066,0,0,1,.164.141,1.18,1.18,0,0,1,.141.164.5.5,0,0,1,.047.257v.329h.75V4.771a1.486,1.486,0,0,0-.188-.75,1.372,1.372,0,0,0-.516-.515A1.283,1.283,0,0,0,4.085,3.389Zm3.656.023a1.494,1.494,0,0,1,.469-.023,1.283,1.283,0,0,1,.468.117,1.372,1.372,0,0,1,.516.515,1.486,1.486,0,0,1,.188.75v.282h-.75V4.724a.5.5,0,0,0-.047-.257A1.18,1.18,0,0,0,8.444,4.3a1.066,1.066,0,0,0-.164-.141.3.3,0,0,0-.211-.023,1.678,1.678,0,0,0-.211.046.481.481,0,0,0-.164.118,1.163,1.163,0,0,0-.14.164.491.491,0,0,0-.047.257v.329h-.75V4.771A1.343,1.343,0,0,1,7.038,3.9a1.475,1.475,0,0,1,.75-.492ZM2.632,5.99h.75v.328A2.7,2.7,0,0,0,4.764,8.685a2.469,2.469,0,0,0,1.383.305,2.691,2.691,0,0,0,1.5-.609,2.534,2.534,0,0,0,.985-2.063V5.99h.75v.516a6.568,6.568,0,0,1-.118.726,3.051,3.051,0,0,1-.257.68,3.191,3.191,0,0,1-.727.914,3.934,3.934,0,0,1-1.008.68,3.3,3.3,0,0,1-.609.164,3.609,3.609,0,0,1-.656.07,3.61,3.61,0,0,1-.657-.07,3.3,3.3,0,0,1-.609-.164,3.934,3.934,0,0,1-1.008-.68,3.169,3.169,0,0,1-.726-.914,3.109,3.109,0,0,1-.258-.68,6.359,6.359,0,0,1-.117-.726Z" fill="#49270a" fill-rule="evenodd"/></svg>