<?xml version="1.0" encoding="utf-8"?>
<svg width="121px" height="122px" viewBox="0 0 121 122" version="1.1" xmlns:xlink="http://www.w3.org/1999/xlink" xmlns="http://www.w3.org/2000/svg">
  <desc>Created with Lunacy</desc>
  <defs>
    <path d="M60.5 122C27.0868 122 0 94.6894 0 61C0 27.3106 27.0868 0 60.5 0C93.9132 0 121 27.3106 121 61C121 94.6894 93.9132 122 60.5 122ZM60.4999 117.933C91.6855 117.933 116.967 92.4434 116.967 61C116.967 29.5566 91.6855 4.06667 60.4999 4.06667C29.3142 4.06667 4.0332 29.5566 4.0332 61C4.0332 92.4434 29.3142 117.933 60.4999 117.933ZM94.6187 41.5576C93.8311 40.7636 92.5542 40.7636 91.7667 41.5576L54.6216 79.0097C48.6397 73.2359 44.0994 68.7866 41.0035 65.6651C39.3469 63.9948 38.1083 62.7091 37.2938 61.8151C36.9486 61.4361 36.6854 61.1338 36.5443 60.982C36.5562 61.0117 36.5629 61.0447 36.5414 61.2498C36.3821 60.2873 35.5522 59.5536 34.5523 59.5536C33.4385 59.5536 32.5356 60.4639 32.5356 61.5869C32.5356 63.1687 36.7002 67.3677 53.2596 83.3237C54.052 84.0871 55.304 84.0728 56.0789 83.2914L94.6187 44.4332C95.4062 43.6391 95.4062 42.3517 94.6187 41.5576Z" id="path_1" />
    <clipPath id="mask_1">
      <use xlink:href="#path_1" />
    </clipPath>
  </defs>
  <path d="M60.5 122C27.0868 122 0 94.6894 0 61C0 27.3106 27.0868 0 60.5 0C93.9132 0 121 27.3106 121 61C121 94.6894 93.9132 122 60.5 122ZM60.4999 117.933C91.6855 117.933 116.967 92.4434 116.967 61C116.967 29.5566 91.6855 4.06667 60.4999 4.06667C29.3142 4.06667 4.0332 29.5566 4.0332 61C4.0332 92.4434 29.3142 117.933 60.4999 117.933ZM94.6187 41.5576C93.8311 40.7636 92.5542 40.7636 91.7667 41.5576L54.6216 79.0097C48.6397 73.2359 44.0994 68.7866 41.0035 65.6651C39.3469 63.9948 38.1083 62.7091 37.2938 61.8151C36.9486 61.4361 36.6854 61.1338 36.5443 60.982C36.5562 61.0117 36.5629 61.0447 36.5414 61.2498C36.3821 60.2873 35.5522 59.5536 34.5523 59.5536C33.4385 59.5536 32.5356 60.4639 32.5356 61.5869C32.5356 63.1687 36.7002 67.3677 53.2596 83.3237C54.052 84.0871 55.304 84.0728 56.0789 83.2914L94.6187 44.4332C95.4062 43.6391 95.4062 42.3517 94.6187 41.5576Z" id="Mask" fill="#05B446" fill-rule="evenodd" stroke="none" />
</svg>