<svg xmlns="http://www.w3.org/2000/svg" xmlns:xlink="http://www.w3.org/1999/xlink" width="44" height="43" viewBox="0 0 44 43"><defs><clipPath id="a"><path d="M19.792,22.963a10.9,10.9,0,0,1-6.466-2.109,8.079,8.079,0,0,1-1.143.882,7.906,7.906,0,0,1-1.289.663,7.746,7.746,0,0,1-2.909.563A8.1,8.1,0,0,1,0,14.764a8.1,8.1,0,0,1,7.985-8.2,7.813,7.813,0,0,1,1.587.163,11.572,11.572,0,0,1,1.562-2.58A11.371,11.371,0,0,1,13.26,2.1,11.125,11.125,0,0,1,15.826.691,10.905,10.905,0,0,1,18.705,0l.044,0a.447.447,0,0,1,.3.12.47.47,0,0,1,.148.3.464.464,0,0,1-.408.509,10.066,10.066,0,0,0-3.386.951c.069,0,.139,0,.206,0a8.687,8.687,0,0,1,2.152.29,11.826,11.826,0,0,1,1.839.645,14.562,14.562,0,0,1,1.8.957,16.984,16.984,0,0,1,1.711,1.224,18.482,18.482,0,0,1,1.582,1.447A18.651,18.651,0,0,1,26.1,8.066a17.455,17.455,0,0,1,1.192,1.757,15.241,15.241,0,0,1,.932,1.844,12.587,12.587,0,0,1,.628,1.887,9.251,9.251,0,0,1,.281,2.347,10.694,10.694,0,0,0,.955-4.445A10.433,10.433,0,0,0,20.823.934a.464.464,0,0,1-.407-.51.47.47,0,0,1,.148-.3.446.446,0,0,1,.3-.12l.046,0A10.919,10.919,0,0,1,24.89,1.2a11.189,11.189,0,0,1,1.716,1.113,11.413,11.413,0,0,1,1.485,1.4,11.575,11.575,0,0,1,2.134,3.522,11.7,11.7,0,0,1,.576,2.04,11.887,11.887,0,0,1,.2,2.173A11.373,11.373,0,0,1,19.792,22.963Zm-4.167-5.811a8.258,8.258,0,0,1-1.651,3.03,10.025,10.025,0,0,0,5.809,1.85h0a10.126,10.126,0,0,0,4.375-1l-.154,0a8.633,8.633,0,0,1-2.082-.272A12.673,12.673,0,0,1,18.7,19.434,17.048,17.048,0,0,1,15.625,17.151ZM3.888,8.843h0a7.348,7.348,0,0,0-2.98,5.921A7.182,7.182,0,0,0,7.985,22.03a7.182,7.182,0,0,0,7.077-7.266A7.351,7.351,0,0,0,12.09,8.849a7.44,7.44,0,0,0,.083,4.384,4.711,4.711,0,0,1,.15,2.534,4.56,4.56,0,0,1-1.28,2.309,4.345,4.345,0,0,1-5.319.615.462.462,0,0,1-.208-.286.474.474,0,0,1,.05-.353.46.46,0,0,1,.169-.169.443.443,0,0,1,.453.007,3.446,3.446,0,0,0,1.605.5c.064,0,.129.005.192.005a3.588,3.588,0,0,0,3.535-3.631,3.724,3.724,0,0,0-.2-1.219A7.864,7.864,0,0,1,10.892,11a8.853,8.853,0,0,1,.4-2.654,6.9,6.9,0,0,0-6.609,0,7.944,7.944,0,0,1,.4,2.586,8.851,8.851,0,0,1-.446,2.68,3.715,3.715,0,0,0,.25,2.9.474.474,0,0,1,.038.355.461.461,0,0,1-.217.278.446.446,0,0,1-.218.058.453.453,0,0,1-.4-.242,4.605,4.605,0,0,1-.349-.845,4.666,4.666,0,0,1,.034-2.8,7.569,7.569,0,0,0,.116-4.465Zm7.907-3.782h0a5.265,5.265,0,0,0-.4,2.29,8,8,0,0,1,2.135,1.515,8.193,8.193,0,0,1,1.524,2.084,8.367,8.367,0,0,1,.811,5.156C18.415,18.607,21.455,20.1,24,20.1h0a4.791,4.791,0,0,0,2.042-.416A8.467,8.467,0,0,1,24.668,19c-.492-.3-1.036-.667-1.615-1.1a41.407,41.407,0,0,1-3.625-3.105c-1.249-1.189-2.489-2.488-3.586-3.756-.564-.652-1.091-1.3-1.566-1.914-.491-.639-.929-1.254-1.3-1.827-.285-.439-.529-.849-.724-1.219a7.723,7.723,0,0,1-.457-1.015Zm.853-1.1a.309.309,0,0,0-.128.018h0c0,.006-.064.152.066.588A9.439,9.439,0,0,0,13.8,6.881,46.364,46.364,0,0,0,24.264,17.626a11.442,11.442,0,0,0,1.888,1.106,2.191,2.191,0,0,0,.816.223.511.511,0,0,0,.085-.006l.037-.038h0l.024-.025a1.007,1.007,0,0,0-.044-.4,4.74,4.74,0,0,0-.312-.823,18.882,18.882,0,0,0-2.04-3.171.472.472,0,0,1-.093-.344.466.466,0,0,1,.171-.311.442.442,0,0,1,.279-.1.448.448,0,0,1,.358.179c.508.668.956,1.305,1.33,1.895a10.773,10.773,0,0,1,1.061,2.044,6.38,6.38,0,0,0,.149-4.071c-1.151-4.723-5.83-9.526-10.43-10.708a7.8,7.8,0,0,0-1.928-.262,4.775,4.775,0,0,0-2.039.416,7.328,7.328,0,0,1,.99.469c.361.2.761.451,1.189.745.679.465,1.409,1.021,2.17,1.655.711.592,1.45,1.252,2.2,1.96.7.668,1.407,1.374,2.091,2.1.656.693,1.279,1.388,1.853,2.063a.476.476,0,0,1-.044.658.446.446,0,0,1-.641-.045,46.843,46.843,0,0,0-8.028-7.542A11.434,11.434,0,0,0,13.464,4.18,2.191,2.191,0,0,0,12.648,3.957ZM10.485,6.924l-.021.047.02.007V6.924Z" transform="translate(0)"/></clipPath></defs><g transform="translate(-577 -114)"><ellipse cx="22" cy="21.5" rx="22" ry="21.5" transform="translate(577 114)" fill="#fec118"/><g transform="translate(584 124)"><g transform="translate(0 0)"><g transform="translate(0)"><path d="M19.792,22.963a10.9,10.9,0,0,1-6.466-2.109,8.079,8.079,0,0,1-1.143.882,7.906,7.906,0,0,1-1.289.663,7.746,7.746,0,0,1-2.909.563A8.1,8.1,0,0,1,0,14.764a8.1,8.1,0,0,1,7.985-8.2,7.813,7.813,0,0,1,1.587.163,11.572,11.572,0,0,1,1.562-2.58A11.371,11.371,0,0,1,13.26,2.1,11.125,11.125,0,0,1,15.826.691,10.905,10.905,0,0,1,18.705,0l.044,0a.447.447,0,0,1,.3.12.47.47,0,0,1,.148.3.464.464,0,0,1-.408.509,10.066,10.066,0,0,0-3.386.951c.069,0,.139,0,.206,0a8.687,8.687,0,0,1,2.152.29,11.826,11.826,0,0,1,1.839.645,14.562,14.562,0,0,1,1.8.957,16.984,16.984,0,0,1,1.711,1.224,18.482,18.482,0,0,1,1.582,1.447A18.651,18.651,0,0,1,26.1,8.066a17.455,17.455,0,0,1,1.192,1.757,15.241,15.241,0,0,1,.932,1.844,12.587,12.587,0,0,1,.628,1.887,9.251,9.251,0,0,1,.281,2.347,10.694,10.694,0,0,0,.955-4.445A10.433,10.433,0,0,0,20.823.934a.464.464,0,0,1-.407-.51.47.47,0,0,1,.148-.3.446.446,0,0,1,.3-.12l.046,0A10.919,10.919,0,0,1,24.89,1.2a11.189,11.189,0,0,1,1.716,1.113,11.413,11.413,0,0,1,1.485,1.4,11.575,11.575,0,0,1,2.134,3.522,11.7,11.7,0,0,1,.576,2.04,11.887,11.887,0,0,1,.2,2.173A11.373,11.373,0,0,1,19.792,22.963Zm-4.167-5.811a8.258,8.258,0,0,1-1.651,3.03,10.025,10.025,0,0,0,5.809,1.85h0a10.126,10.126,0,0,0,4.375-1l-.154,0a8.633,8.633,0,0,1-2.082-.272A12.673,12.673,0,0,1,18.7,19.434,17.048,17.048,0,0,1,15.625,17.151ZM3.888,8.843h0a7.348,7.348,0,0,0-2.98,5.921A7.182,7.182,0,0,0,7.985,22.03a7.182,7.182,0,0,0,7.077-7.266A7.351,7.351,0,0,0,12.09,8.849a7.44,7.44,0,0,0,.083,4.384,4.711,4.711,0,0,1,.15,2.534,4.56,4.56,0,0,1-1.28,2.309,4.345,4.345,0,0,1-5.319.615.462.462,0,0,1-.208-.286.474.474,0,0,1,.05-.353.46.46,0,0,1,.169-.169.443.443,0,0,1,.453.007,3.446,3.446,0,0,0,1.605.5c.064,0,.129.005.192.005a3.588,3.588,0,0,0,3.535-3.631,3.724,3.724,0,0,0-.2-1.219A7.864,7.864,0,0,1,10.892,11a8.853,8.853,0,0,1,.4-2.654,6.9,6.9,0,0,0-6.609,0,7.944,7.944,0,0,1,.4,2.586,8.851,8.851,0,0,1-.446,2.68,3.715,3.715,0,0,0,.25,2.9.474.474,0,0,1,.038.355.461.461,0,0,1-.217.278.446.446,0,0,1-.218.058.453.453,0,0,1-.4-.242,4.605,4.605,0,0,1-.349-.845,4.666,4.666,0,0,1,.034-2.8,7.569,7.569,0,0,0,.116-4.465Zm7.907-3.782h0a5.265,5.265,0,0,0-.4,2.29,8,8,0,0,1,2.135,1.515,8.193,8.193,0,0,1,1.524,2.084,8.367,8.367,0,0,1,.811,5.156C18.415,18.607,21.455,20.1,24,20.1h0a4.791,4.791,0,0,0,2.042-.416A8.467,8.467,0,0,1,24.668,19c-.492-.3-1.036-.667-1.615-1.1a41.407,41.407,0,0,1-3.625-3.105c-1.249-1.189-2.489-2.488-3.586-3.756-.564-.652-1.091-1.3-1.566-1.914-.491-.639-.929-1.254-1.3-1.827-.285-.439-.529-.849-.724-1.219a7.723,7.723,0,0,1-.457-1.015Zm.853-1.1a.309.309,0,0,0-.128.018h0c0,.006-.064.152.066.588A9.439,9.439,0,0,0,13.8,6.881,46.364,46.364,0,0,0,24.264,17.626a11.442,11.442,0,0,0,1.888,1.106,2.191,2.191,0,0,0,.816.223.511.511,0,0,0,.085-.006l.037-.038h0l.024-.025a1.007,1.007,0,0,0-.044-.4,4.74,4.74,0,0,0-.312-.823,18.882,18.882,0,0,0-2.04-3.171.472.472,0,0,1-.093-.344.466.466,0,0,1,.171-.311.442.442,0,0,1,.279-.1.448.448,0,0,1,.358.179c.508.668.956,1.305,1.33,1.895a10.773,10.773,0,0,1,1.061,2.044,6.38,6.38,0,0,0,.149-4.071c-1.151-4.723-5.83-9.526-10.43-10.708a7.8,7.8,0,0,0-1.928-.262,4.775,4.775,0,0,0-2.039.416,7.328,7.328,0,0,1,.99.469c.361.2.761.451,1.189.745.679.465,1.409,1.021,2.17,1.655.711.592,1.45,1.252,2.2,1.96.7.668,1.407,1.374,2.091,2.1.656.693,1.279,1.388,1.853,2.063a.476.476,0,0,1-.044.658.446.446,0,0,1-.641-.045,46.843,46.843,0,0,0-8.028-7.542A11.434,11.434,0,0,0,13.464,4.18,2.191,2.191,0,0,0,12.648,3.957ZM10.485,6.924l-.021.047.02.007V6.924Z" transform="translate(0)"/><g clip-path="url(#a)"><g transform="translate(-0.073 0)"><rect width="31.061" height="23" fill="none"/><rect width="31.061" height="23" fill="#49270a"/></g></g></g></g></g></g></svg>