<?xml version="1.0" encoding="UTF-8"?>
<svg width="14px" height="26px" viewBox="0 0 14 26" version="1.1" xmlns="http://www.w3.org/2000/svg" xmlns:xlink="http://www.w3.org/1999/xlink">
    <!-- Generator: Sketch 58 (84663) - https://sketch.com -->
    <title>dollar-sign</title>
    <desc>Created with Sketch.</desc>
    <g id="SoulPet" stroke="none" stroke-width="1" fill="none" fill-rule="evenodd">
        <g id="--Importar-XML-de-NFE" transform="translate(-2354.000000, -698.000000)" fill="#149935" fill-rule="nonzero">
            <g id="dollar-sign" transform="translate(2354.000000, 698.000000)">
                <g id="Path">
                    <path d="M10.1676735,11.8523438 L4.91767347,10.2476563 C4.31003458,10.0648437 3.88711791,9.47070312 3.88711791,8.81054688 C3.88711791,7.9828125 4.52878458,7.3125 5.32114569,7.3125 L8.54406235,7.3125 C9.13711791,7.3125 9.72045124,7.50039062 10.2065624,7.84570312 C10.5030901,8.05390625 10.9017012,8.003125 11.154479,7.74414062 L12.8461457,6.01757812 C13.1912846,5.6671875 13.1426735,5.08320312 12.7586457,4.7734375 C11.5676735,3.7984375 10.0801735,3.25507812 8.55378458,3.25 L8.55378458,0.8125 C8.55378458,0.365625 8.20378458,0 7.7760068,0 L6.22045124,0 C5.79267347,0 5.44267347,0.365625 5.44267347,0.8125 L5.44267347,3.25 L5.32114569,3.25 C2.22461791,3.25 -0.264270979,6.02773438 0.0225345769,9.3234375 C0.226701244,11.6644531 1.93781235,13.56875 4.09614569,14.2289062 L9.07878458,15.7523437 C9.68642347,15.9402344 10.1093401,16.5292969 10.1093401,17.1894531 C10.1093401,18.0171875 9.46767347,18.6875 8.67531235,18.6875 L5.45239569,18.6875 C4.85934013,18.6875 4.2760068,18.4996094 3.78989569,18.1542969 C3.49336791,17.9460937 3.0947568,17.996875 2.84197902,18.2558594 L1.15031235,19.9824219 C0.805173466,20.3328125 0.853784577,20.9167969 1.23781235,21.2265625 C2.42878458,22.2015625 3.91628458,22.7449219 5.44267347,22.75 L5.44267347,25.1875 C5.44267347,25.634375 5.79267347,26 6.22045124,26 L7.7760068,26 C8.20378458,26 8.55378458,25.634375 8.55378458,25.1875 L8.55378458,22.7398438 C10.8190624,22.6941406 12.9433679,21.2875 13.691979,19.0480469 C14.7371179,15.9199219 12.9822568,12.7105469 10.1676735,11.8523438 Z"></path>
                </g>
            </g>
        </g>
    </g>
</svg>