<?xml version="1.0" encoding="utf-8"?>
<svg width="20px" height="17px" viewBox="0 0 20 17" version="1.1" xmlns:xlink="http://www.w3.org/1999/xlink" xmlns="http://www.w3.org/2000/svg">
  <desc>Created with Lunacy</desc>
  <path d="M10.2885 13.471L19.4068 4.75316C20.1985 3.99624 20.1985 2.76459 19.4033 2.00435L17.9033 0.57018C17.1116 -0.19006 15.8268 -0.19006 15.0317 0.57018L5.91344 9.28804L5.56621 12.2892C5.46551 13.1656 6.23984 13.8993 7.14958 13.803L10.2885 13.471ZM16.726 1.69876L18.226 3.13293C18.3684 3.26904 18.3684 3.48815 18.2295 3.62758L17.1566 4.65341L15.1392 2.72459L16.2121 1.69876C16.351 1.56265 16.5836 1.56265 16.726 1.69876ZM15.0802 10.39L13.9691 11.4523C13.917 11.5021 13.8892 11.5685 13.8892 11.6383L13.8892 15.4063L1.6667 15.4063L1.6667 3.72047L10.0523 3.72047C10.1287 3.72047 10.1981 3.69391 10.2502 3.64411L11.3614 2.58177C11.535 2.41246 11.41 2.12695 11.1634 2.12695L1.6667 2.12695C0.746544 2.12695 0 2.84072 0 3.72047L0 15.4063C0 16.286 0.746544 16.9998 1.6667 16.9998L13.8892 16.9998C14.8093 16.9998 15.5559 16.286 15.5559 15.4063L15.5559 10.5792C15.5559 10.3402 15.2538 10.224 15.0802 10.39ZM15.9761 5.7794L13.9587 3.85059L7.50714 10.0221L7.25366 12.19L9.52107 11.9476L15.9761 5.7794Z" id="Shape" fill="#91D144" fill-rule="evenodd" stroke="none" />
</svg>