<svg xmlns="http://www.w3.org/2000/svg" width="28" height="18" viewBox="0 0 28 18"><rect width="28" height="18" fill="none"/><path d="M14,18a15.972,15.972,0,0,1-4.209-.562A15.82,15.82,0,0,1,.323,10.192a2.362,2.362,0,0,1,0-2.384A15.819,15.819,0,0,1,9.79.562a15.916,15.916,0,0,1,12.2,1.587,15.809,15.809,0,0,1,5.682,5.659,2.361,2.361,0,0,1,0,2.384,15.819,15.819,0,0,1-9.467,7.246A15.972,15.972,0,0,1,14,18ZM14,2.308A6.692,6.692,0,1,0,20.656,9,6.682,6.682,0,0,0,14,2.308Zm0,11.769a5,5,0,0,1-3.57-1.487A5.058,5.058,0,0,1,8.951,9a5.109,5.109,0,0,1,.594-2.391v0a2.079,2.079,0,1,0,2.079-2.09h0a5.071,5.071,0,0,1,5.948,8.07A5,5,0,0,1,14,14.077Z" transform="translate(0 0)" fill="#fec118"/></svg>