<?xml version="1.0" encoding="UTF-8"?>
<svg width="410px" height="512px" viewBox="0 0 410 512" version="1.1" xmlns="http://www.w3.org/2000/svg" xmlns:xlink="http://www.w3.org/1999/xlink">
    <!-- Generator: Sketch 58 (84663) - https://sketch.com -->
    <title>icon-bag</title>
    <desc>Created with Sketch.</desc>
    <g id="icon-bag" stroke="none" stroke-width="1" fill="none" fill-rule="evenodd">
        <g id="pet-shop" fill="#FEC118">
            <path d="M179.304691,301.667969 C195.394535,301.667969 202.359378,283.609374 199.636723,270.027343 C196.988285,256.804687 187.035161,247.210938 175.968753,247.210938 C159.863284,247.210938 152.941409,264.929687 155.585941,278.605468 C155.601565,278.687498 155.617191,278.769531 155.632815,278.847657 C158.285159,292.070311 168.238284,301.667969 179.304691,301.667969 Z M175.199222,262.285156 C180.570315,261.210938 184.121097,268.945312 184.929691,272.976562 C185.785159,277.242188 185.61719,286.66797 179.304691,286.66797 C176.031253,286.66797 171.671878,282.550782 170.339847,275.902344 C168.945315,268.945312 171.753909,262.976562 175.199222,262.285156 L175.199222,262.285156 Z" id="Shape"></path>
            <path d="M140.070318,328.832028 C153.046878,323.089841 154.636727,306.308592 149.500006,294.699216 C144.3711,283.117185 130.902349,272.972653 117.890629,278.734372 C106.382816,283.828122 102.242192,298.82031 108.460942,312.867187 C113.585942,324.445311 127.058599,334.593749 140.070318,328.832028 Z M122.175785,306.796872 C119.304692,300.308591 120.750004,293.871091 123.960942,292.449216 C128.968753,290.230465 134.121097,297.011716 135.785159,300.769528 C137.449221,304.531248 139.007815,312.898435 134.000003,315.117185 C128.988284,317.332028 123.839848,310.554685 122.175785,306.796872 Z" id="Shape"></path>
            <path d="M226.402346,301.300779 C240.328126,304.089846 251.285159,291.335938 253.789064,278.851563 C256.480469,265.417969 249.64844,247.210938 233.457033,247.210938 C222.390628,247.210938 212.433597,256.804688 209.785159,270.027344 C206.765628,285.089844 214.062503,298.828124 226.402346,301.300779 Z M224.492191,272.976561 C225.339847,268.73828 228.703128,261.187499 234.226566,262.285155 C239.597659,263.367187 239.890629,271.867187 239.082035,275.902342 C238.242192,280.089842 234.839847,287.699217 229.351565,286.593748 C225.906253,285.902342 223.097659,279.933593 224.492191,272.976561 L224.492191,272.976561 Z" id="Shape"></path>
            <path d="M259.921864,294.699204 C253.703114,308.74608 257.843739,323.738267 269.35155,328.832015 C282.328115,334.578109 295.816396,324.492174 300.960926,312.867175 C306.113271,301.234361 304.507802,284.476547 291.535144,278.73436 C278.609364,273.011704 265.085927,283.039048 259.921864,294.699204 L259.921864,294.699204 Z M288.492177,296.886705 C289.175771,299.847642 288.722645,303.460924 287.246084,306.796862 C285.539051,310.652331 280.499989,317.367176 275.42577,315.117176 C272.214833,313.695299 270.765614,307.257798 273.640614,300.769517 C276.160145,295.082017 280.64452,292.105454 283.773427,292.105454 C286.476552,292.105454 287.945301,294.52733 288.492177,296.886705 L288.492177,296.886705 Z" id="Shape"></path>
            <path d="M250.480468,330.363281 C243.015625,330.363281 239.6875,327.179687 234.652336,322.359374 C228.449215,316.425781 220.730468,309.042969 204.710933,309.042969 C188.691403,309.042969 180.972656,316.425781 174.76953,322.359374 C169.734371,327.179687 166.406251,330.363281 158.941405,330.363281 C148.41406,330.363281 137.792968,337.589844 131.218749,349.21875 C117.105468,374.195313 130.621093,413.113281 162.347653,413.113281 C169.210937,413.113281 176.386715,411.613279 183.328124,410.160159 C198.171874,407.058597 211.054682,407.015622 226.097654,410.160159 C233.039063,411.613279 240.214836,413.113281 247.082029,413.113281 C278.929687,413.117189 292.265629,374.097658 278.203124,349.21875 C271.628903,337.589844 261.007808,330.363281 250.480468,330.363281 L250.480468,330.363281 Z M264.511716,387.839839 C256.437496,401.242183 242.199217,398.203121 229.167965,395.480465 C212.097652,391.910152 197.316405,391.910152 180.257812,395.480465 C166.972655,398.257811 153.039061,401.339844 144.914062,387.839839 C136.398438,373.699215 141.632812,361.28125 144.277344,356.597654 C148.019531,349.984373 154.046875,345.36328 158.941407,345.36328 C172.42578,345.36328 179.476563,338.617187 185.140625,333.199218 C197.449219,321.421875 212.152344,321.589844 224.281248,333.199218 C229.945314,338.617187 236.996091,345.36328 250.484372,345.36328 C255.378905,345.36328 261.406248,349.984373 265.144532,356.597654 C267.789059,361.28125 273.023438,373.695309 264.511716,387.839839 Z" id="Shape"></path>
            <path d="M204.710938,200.015625 C132.949219,200.015625 74.5664062,258.398437 74.5664062,330.160155 C74.5664062,401.925774 132.949219,460.308594 204.710938,460.308594 C276.472656,460.308594 334.855469,401.925774 334.855469,330.160155 C334.855469,258.398437 276.472656,200.015625 204.710938,200.015625 Z M204.710938,445.308594 C141.21875,445.308594 89.5664062,393.652337 89.5664062,330.160153 C89.5664062,266.671875 141.21875,215.015625 204.710938,215.015625 C268.203122,215.015625 319.855469,266.671875 319.855469,330.160153 C319.855469,393.652337 268.203122,445.308594 204.710938,445.308594 Z" id="Shape"></path>
            <path d="M315.042951,163.324228 C330.937486,163.324228 344.718742,174.64454 347.80076,190.238277 C347.80076,190.238277 380.749988,356.933604 380.781229,357.082037 C381.570303,361.074223 385.605462,363.773435 389.593738,362.984391 C393.656227,362.183616 396.296858,358.238288 395.496074,354.175802 L362.515606,187.332043 C358.062479,164.800785 338.20702,148.433599 315.2617,148.328129 L315.2617,110.550786 C315.2617,49.5937503 265.667968,2.84217094e-14 204.71093,2.84217094e-14 C143.753901,2.84217094e-14 94.1640585,49.5937503 94.1640585,110.550786 L94.1640585,148.328129 C71.2148417,148.433599 51.3593729,164.800785 46.9062487,187.332043 L39.2304678,226.175794 C38.4257798,230.23828 41.0664047,234.183608 45.1328108,234.984383 C49.1953106,235.789075 53.1406237,233.148453 53.9453097,229.082028 L61.6210933,190.238277 C64.7070297,174.64454 78.4804654,163.324228 94.3828076,163.324228 L315.042951,163.324228 Z M259.71484,148.324219 L149.707027,148.324219 L149.707027,110.55078 C149.707027,80.21875 174.382809,55.5429688 204.710934,55.5429688 C235.042963,55.5429688 259.71484,80.21875 259.71484,110.55078 L259.71484,148.324219 Z M274.714838,148.324219 L274.714838,110.550784 C274.714838,71.949219 243.312499,40.5429687 204.710933,40.5429687 C166.109373,40.5429687 134.707026,71.949219 134.707026,110.550784 L134.707026,148.324219 L109.164059,148.324219 L109.164059,110.550784 C109.164059,57.8632798 152.023435,15 204.710933,15 C257.398437,15 300.261715,57.8632798 300.261715,110.550784 L300.261715,148.324219 L274.714838,148.324219 Z" id="Shape"></path>
            <path d="M33.3007809,256.175783 L1.52734393,416.906249 C-3.11328082,440.371095 2.93749994,464.43359 18.1249994,482.914068 C33.3124976,501.398433 55.7421889,512 79.6640566,512 L329.757793,512 C353.679667,512 376.10937,501.398433 391.296852,482.914068 C406.484357,464.43359 412.535132,440.371095 407.894508,416.906249 L401.425776,384.175784 C400.621074,380.109374 396.679681,377.468749 392.613269,378.273442 C388.550761,379.074216 385.906238,383.019525 386.710915,387.085935 L393.179672,419.8164 C396.945287,438.863278 392.035152,458.39453 379.707017,473.394524 C367.382811,488.394533 349.175775,497.000006 329.757793,497.000006 L79.6640566,497.000006 C60.2460929,497.000006 42.0390595,488.394533 29.7148444,473.394524 C17.3867187,458.390628 12.4765613,438.863278 16.2421869,419.812498 L48.0117189,259.082034 C48.8164058,255.019533 46.1757808,251.074221 42.1093749,250.269533 C38.0429689,249.468752 34.1015603,252.109377 33.3007809,256.175783 L33.3007809,256.175783 Z" id="Path"></path>
        </g>
    </g>
</svg>