<?xml version="1.0" encoding="UTF-8"?>
<svg width="24px" height="20px" viewBox="0 0 24 20" version="1.1" xmlns="http://www.w3.org/2000/svg" xmlns:xlink="http://www.w3.org/1999/xlink">
    <!-- Generator: Sketch 58 (84663) - https://sketch.com -->
    <title>list-ul</title>
    <desc>Created with Sketch.</desc>
    <g id="SoulPet" stroke="none" stroke-width="1" fill="none" fill-rule="evenodd">
        <g id="--Importar-XML-de-NFE" transform="translate(-2313.000000, -701.000000)" fill="#FEC118">
            <g id="list-ul" transform="translate(2313.000000, 701.000000)">
                <g id="Shape">
                    <path d="M2.25,0 C1.00735931,0 0,1.03318904 0,2.30769231 C0,3.58219558 1.00735931,4.61538462 2.25,4.61538462 C3.49264069,4.61538462 4.5,3.58219558 4.5,2.30769231 C4.5,1.03318904 3.49264069,0 2.25,0 L2.25,0 Z M2.25,7.69230769 C1.00735931,7.69230769 0,8.72549673 0,10 C0,11.2745033 1.00735931,12.3076923 2.25,12.3076923 C3.49264069,12.3076923 4.5,11.2745033 4.5,10 C4.5,8.72549673 3.49264069,7.69230769 2.25,7.69230769 Z M2.25,15.3846154 C1.00735931,15.3846154 0,16.4178044 0,17.6923077 C0,18.966811 1.00735931,20 2.25,20 C3.49264069,20 4.5,18.966811 4.5,17.6923077 C4.5,16.4178044 3.49264069,15.3846154 2.25,15.3846154 Z M23.25,16.1538462 L8.25,16.1538462 C7.83578644,16.1538462 7.5,16.4982425 7.5,16.9230769 L7.5,18.4615385 C7.5,18.8863729 7.83578644,19.2307692 8.25,19.2307692 L23.25,19.2307692 C23.6642136,19.2307692 24,18.8863729 24,18.4615385 L24,16.9230769 C24,16.4982425 23.6642136,16.1538462 23.25,16.1538462 Z M23.25,0.769230769 L8.25,0.769230769 C7.83578644,0.769230769 7.5,1.11362712 7.5,1.53846154 L7.5,3.07692308 C7.5,3.5017575 7.83578644,3.84615385 8.25,3.84615385 L23.25,3.84615385 C23.6642136,3.84615385 24,3.5017575 24,3.07692308 L24,1.53846154 C24,1.11362712 23.6642136,0.769230769 23.25,0.769230769 Z M23.25,8.46153846 L8.25,8.46153846 C7.83578644,8.46153846 7.5,8.80593481 7.5,9.23076923 L7.5,10.7692308 C7.5,11.1940652 7.83578644,11.5384615 8.25,11.5384615 L23.25,11.5384615 C23.6642136,11.5384615 24,11.1940652 24,10.7692308 L24,9.23076923 C24,8.80593481 23.6642136,8.46153846 23.25,8.46153846 Z" fill-rule="nonzero"></path>
                </g>
            </g>
        </g>
    </g>
</svg>