<svg xmlns="http://www.w3.org/2000/svg" width="11.253" height="12" viewBox="0 0 11.253 12"><path d="M6,0h-.75V4.125H6Zm-2.7,1.617c-.111-.171-.181-.258-.211-.258a2.5,2.5,0,0,0-.469.282A5.137,5.137,0,0,0,.659,3.75,5.656,5.656,0,0,0,0,6.562a5.454,5.454,0,0,0,1.641,3.751,5.991,5.991,0,0,0,1.265.984,5.252,5.252,0,0,0,1.547.562A3.844,3.844,0,0,0,5.628,12,3.848,3.848,0,0,0,6.8,11.859a4.964,4.964,0,0,0,1.055-.328,8.655,8.655,0,0,0,.914-.515,5.075,5.075,0,0,0,1.523-1.524,5.326,5.326,0,0,0,.82-1.992,5.337,5.337,0,0,0-.422-3.609A5.771,5.771,0,0,0,9.472,2.25q-.282-.234-.727-.539a2.524,2.524,0,0,0-.562-.328q-.117-.024-.258.258a1.476,1.476,0,0,0-.141.328q0,.047.422.281a4.817,4.817,0,0,1,1.125.984,5.047,5.047,0,0,1,.8,1.266,4.534,4.534,0,0,1,.258.867,5.971,5.971,0,0,1,.07,1.008q0,.468-.023.68c-.017.14-.04.3-.071.492a5.393,5.393,0,0,1-.7,1.547,4.444,4.444,0,0,1-1.125,1.172,5.344,5.344,0,0,1-.82.468,7.68,7.68,0,0,1-.914.375c-.188.032-.352.055-.492.071s-.368.023-.68.023-.539-.007-.68-.023-.3-.039-.492-.071a4.937,4.937,0,0,1-2.2-1.218A4.688,4.688,0,0,1,.87,7.406a4.905,4.905,0,0,1,.211-2.812A4.838,4.838,0,0,1,1.9,3.258,4.9,4.9,0,0,1,3.05,2.25q.421-.234.422-.3A.971.971,0,0,0,3.308,1.617Z" fill="#49270a" fill-rule="evenodd"/></svg>