<svg xmlns="http://www.w3.org/2000/svg" width="11.812" height="12" viewBox="0 0 11.812 12"><path d="M6.656.094A3.557,3.557,0,0,0,5.882,0a2.966,2.966,0,0,0-.726.094A4.713,4.713,0,0,0,3.445.8,3.7,3.7,0,0,0,2.25,2.063a3.8,3.8,0,0,0-.4,1.148,3.4,3.4,0,0,0-.023,1.2,8.712,8.712,0,0,0,1.64,3.328l.375.516H2.3L0,11.953Q0,12,5.906,12t5.906-.047l-2.3-3.7H7.968l.375-.516q1.782-2.484,1.688-4.078a4.019,4.019,0,0,0-.539-1.64A3.808,3.808,0,0,0,8.3.774,4.736,4.736,0,0,0,6.656.094ZM5.25.844a2.34,2.34,0,0,1,.773-.07A3.509,3.509,0,0,1,6.8.891a2.9,2.9,0,0,1,1.546.89,2.928,2.928,0,0,1,.8,1.172,3.254,3.254,0,0,1,0,1.735,8.1,8.1,0,0,1-1.172,2.2,16.856,16.856,0,0,1-1.2,1.687,6.243,6.243,0,0,1-.844.985q-.07,0-.492-.493c-.281-.328-.532-.648-.75-.961A11.01,11.01,0,0,1,2.625,4.547,2.414,2.414,0,0,1,2.7,2.953,3.431,3.431,0,0,1,3.679,1.57,3.107,3.107,0,0,1,5.25.844ZM6,2.672l.375.047a1.174,1.174,0,0,1,.281.141,1.447,1.447,0,0,1,.539.562,1.6,1.6,0,0,1,.211.8,1.538,1.538,0,0,1-.469.984,1.47,1.47,0,0,1-2.062,0,1.528,1.528,0,0,1-.469-.984,1.337,1.337,0,0,1,.328-1.008,1.5,1.5,0,0,1,.891-.539A.781.781,0,0,1,6,2.672Zm-.3.75a.777.777,0,0,0-.469.422.67.67,0,0,0,.047.68.692.692,0,0,0,.633.351A.682.682,0,0,0,6.539,4.5a.676.676,0,0,0,.023-.7,1.221,1.221,0,0,0-.281-.281A.666.666,0,0,0,5.7,3.422ZM4.453,9H2.718L1.359,11.2q0,.047,4.547.047t4.547-.047L9.093,9H7.359l-.141.234c-.157.158-.406.43-.75.821a3.942,3.942,0,0,1-.562.586,3.852,3.852,0,0,1-.563-.586c-.344-.391-.593-.663-.75-.821Z" fill="#49270a" fill-rule="evenodd"/></svg>