<svg xmlns="http://www.w3.org/2000/svg" width="478.703" height="478.7" viewBox="0 0 478.703 478.7"><g transform="translate(0 -0.001)"><path d="M454.2,189.1l-33.6-5.7a189.723,189.723,0,0,0-13.5-32.6l19.8-27.7A29.482,29.482,0,0,0,423.7,85L393.9,55.2A29.354,29.354,0,0,0,373,46.5,29.056,29.056,0,0,0,355.9,52L328.1,71.8a187.75,187.75,0,0,0-33.8-13.9l-5.6-33.2A29.541,29.541,0,0,0,259.5,0H217.4a29.541,29.541,0,0,0-29.2,24.7l-5.8,34a185.049,185.049,0,0,0-32.5,13.7L122.4,52.6a29.537,29.537,0,0,0-38.1,3.2L54.4,85.6a29.6,29.6,0,0,0-3.2,38.1l20,28.1a185.314,185.314,0,0,0-13.3,32.7l-33.2,5.6A29.541,29.541,0,0,0,0,219.3v42.1a29.541,29.541,0,0,0,24.7,29.2l34,5.8a185.048,185.048,0,0,0,13.7,32.5L52.7,356.3a29.482,29.482,0,0,0,3.2,38.1l29.8,29.8a29.354,29.354,0,0,0,20.9,8.7,29.056,29.056,0,0,0,17.1-5.5l28.1-20a189.177,189.177,0,0,0,31.6,13L189,454a29.541,29.541,0,0,0,29.2,24.7h42.2A29.541,29.541,0,0,0,289.6,454l5.7-33.6a189.723,189.723,0,0,0,32.6-13.5l27.7,19.8a29.358,29.358,0,0,0,17.2,5.5h0a29.354,29.354,0,0,0,20.9-8.7l29.8-29.8a29.6,29.6,0,0,0,3.2-38.1l-19.8-27.8a188.362,188.362,0,0,0,13.5-32.6l33.6-5.6a29.541,29.541,0,0,0,24.7-29.2V218.3A29.185,29.185,0,0,0,454.2,189.1Zm-2.3,71.3a2.59,2.59,0,0,1-2.2,2.6l-42,7a13.425,13.425,0,0,0-10.8,9.9,160.083,160.083,0,0,1-17.4,41.9,13.521,13.521,0,0,0,.6,14.7l24.7,34.8a2.723,2.723,0,0,1-.3,3.4l-29.8,29.8a2.54,2.54,0,0,1-1.9.8,2.456,2.456,0,0,1-1.5-.5l-34.7-24.7a13.513,13.513,0,0,0-14.7-.6A160.084,160.084,0,0,1,280,396.9a13.273,13.273,0,0,0-9.9,10.8l-7.1,42a2.59,2.59,0,0,1-2.6,2.2H218.3a2.59,2.59,0,0,1-2.6-2.2l-7-42a13.425,13.425,0,0,0-9.9-10.8,166.225,166.225,0,0,1-41-16.8,13.842,13.842,0,0,0-6.8-1.8,13.17,13.17,0,0,0-7.8,2.5l-35,24.9a2.976,2.976,0,0,1-1.5.5,2.68,2.68,0,0,1-1.9-.8L75,375.6a2.712,2.712,0,0,1-.3-3.4l24.6-34.5a13.69,13.69,0,0,0,.6-14.8,158.576,158.576,0,0,1-17.6-41.8,13.7,13.7,0,0,0-10.8-9.9L29.2,264a2.59,2.59,0,0,1-2.2-2.6V219.3a2.59,2.59,0,0,1,2.2-2.6l41.7-7a13.521,13.521,0,0,0,10.9-10,159.922,159.922,0,0,1,17.1-42,13.351,13.351,0,0,0-.7-14.6l-24.9-35a2.723,2.723,0,0,1,.3-3.4l29.8-29.8a2.54,2.54,0,0,1,1.9-.8,2.456,2.456,0,0,1,1.5.5l34.5,24.6a13.69,13.69,0,0,0,14.8.6,158.576,158.576,0,0,1,41.8-17.6,13.7,13.7,0,0,0,9.9-10.8L215,29.1a2.59,2.59,0,0,1,2.6-2.2h42.1a2.59,2.59,0,0,1,2.6,2.2l7,41.7a13.521,13.521,0,0,0,10,10.9,162.313,162.313,0,0,1,42.9,17.6,13.521,13.521,0,0,0,14.7-.6l34.5-24.8a2.976,2.976,0,0,1,1.5-.5,2.68,2.68,0,0,1,1.9.8L404.6,104a2.712,2.712,0,0,1,.3,3.4l-24.7,34.7a13.513,13.513,0,0,0-.6,14.7A160.084,160.084,0,0,1,397,198.7a13.273,13.273,0,0,0,10.8,9.9l42,7.1a2.59,2.59,0,0,1,2.2,2.6v42.1Z" fill="#49270a"/><path d="M239.4,136A103.3,103.3,0,1,0,342.7,239.3,103.365,103.365,0,0,0,239.4,136Zm0,179.6a76.3,76.3,0,1,1,76.3-76.3A76.35,76.35,0,0,1,239.4,315.6Z" fill="#49270a"/></g></svg>