<?xml version="1.0" encoding="UTF-8"?>
<svg width="121px" height="122px" viewBox="0 0 121 122" version="1.1" xmlns="http://www.w3.org/2000/svg" xmlns:xlink="http://www.w3.org/1999/xlink">
    <!-- Generator: Sketch 58 (84663) - https://sketch.com -->
    <title>sucesso copy 4</title>
    <desc>Created with Sketch.</desc>
    <defs>
        <path d="M60.5,0 C93.9132274,0 121,27.3106303 121,61 C121,94.6893697 93.9132274,122 60.5,122 C27.0867726,122 0,94.6893697 0,61 C0,27.3106303 27.0867726,0 60.5,0 Z M60.5,4.06666667 C29.3143211,4.06666667 4.03333333,29.5565882 4.03333333,61 C4.03333333,92.4434118 29.3143211,117.933333 60.5,117.933333 C91.6856789,117.933333 116.966667,92.4434118 116.966667,61 C116.966667,29.5565882 91.6856789,4.06666667 60.5,4.06666667 Z M45.2972042,43.4687771 L60.5,58.6715729 L75.7027958,43.4687771 C76.4838444,42.6877285 77.7501743,42.6877285 78.5312229,43.4687771 C79.3122715,44.2498257 79.3122715,45.5161556 78.5312229,46.2972042 L63.3284271,61.5 L78.5312229,76.7027958 C79.3122715,77.4838444 79.3122715,78.7501743 78.5312229,79.5312229 C77.7501743,80.3122715 76.4838444,80.3122715 75.7027958,79.5312229 L60.5,64.3284271 L45.2972042,79.5312229 C44.5161556,80.3122715 43.2498257,80.3122715 42.4687771,79.5312229 C41.6877285,78.7501743 41.6877285,77.4838444 42.4687771,76.7027958 L57.6715729,61.5 L42.4687771,46.2972042 C41.6877285,45.5161556 41.6877285,44.2498257 42.4687771,43.4687771 C43.2498257,42.6877285 44.5161556,42.6877285 45.2972042,43.4687771 Z" id="path-1"></path>
    </defs>
    <g id="Page-1" stroke="none" stroke-width="1" fill="none" fill-rule="evenodd">
        <g id="Pagamento-Inválido" transform="translate(-130.000000, -245.000000)">
            <g id="Icons/Error" transform="translate(130.000000, 245.000000)">
                <g id="Color/White">
                    <mask id="mask-2" fill="white">
                        <use xlink:href="#path-1"></use>
                    </mask>
                    <use id="Mask" fill="#D3D3D3" fill-rule="nonzero" xlink:href="#path-1"></use>
                    <g id="Color/Red" mask="url(#mask-2)" fill="#DD4141">
                        <rect id="Rectangle" x="0" y="0" width="122" height="122"></rect>
                    </g>
                </g>
            </g>
        </g>
    </g>
</svg>